<svg width="628" height="617" fill="none" xmlns="http://www.w3.org/2000/svg"><path d="M83.729 176.382c-2.453-.694-50.093-12.031-51.019-12.253a27.178 27.178 0 00-7.646-.873c-10.798.688-13.816 13.719-.697 21.172 6.368 3.616 13.276 6.358 19.813 9.6 5.744 2.254 10.602 6.254 13.867 11.415.188.296.478.516.817.62.339.104.704.086 1.03-.052.327-.137.593-.385.75-.698.156-.313.194-.67.106-1.008-2.559-12.572-31.271-18.248-38.816-26.223-3.31-3.498-3.668-9.897 2.088-11.004 4.013-.771 3.965-.238 54.221 11.84 4.082.981 10.227 1.9 12.475 5.957 3.837 6.917-8.635 14.962-5.29 24.017.09.261.278.477.526.607.247.129.536.16.806.088.27-.072.502-.243.65-.478.146-.234.196-.515.14-.785-1.884-7.632 10.321-14.549 7.11-23.754-1.646-4.714-6.457-6.917-10.931-8.188zm181.633 377.092c-2.418-10.637-16.419-11.461-32.518-16.165-5.981-1.25-11.405-4.331-15.49-8.802-1.158-1.064-2.713.571-2.239 1.783 4.619 11.788 34.208 12.427 43.062 18.782 3.75 2.69 5.608 8.78.424 11.081-4.474 1.984-10.362.836-15.072.568-6.594-.377-32.791-1.802-39.25-2.16-4.518-.253-10.99.151-14.522-3.227-6.064-5.824 5.438-16.437.348-24.988-.697-1.176-2.615-.423-2.006.91 3.369 7.373-7.79 16.44-2.317 25.044 2.775 4.365 8.38 5.423 13.244 5.766 1.941.139 40.698 2.212 42.638 2.317 5.448.293 11.593 1.345 16.915-.266a9.172 9.172 0 005.586-3.971 8.891 8.891 0 001.197-6.672z" fill="#191919"/><path d="M422.663 153.732a19.028 19.028 0 00-.731-12.748 19.466 19.466 0 00-8.655-9.525 20.326 20.326 0 00-16.956-.531c-10.789 4.627-13.75 18.174-10.048 27.015 6.284 14.959 31.661 14.145 36.39-4.211zm-22.36-4.01a3.4 3.4 0 01.226-2.541 3.498 3.498 0 011.94-1.695 3.577 3.577 0 012.595.076c.823.35 1.479.996 1.833 1.806a3.39 3.39 0 01.013 2.749c-.19.434-.469.826-.819 1.151a3.557 3.557 0 01-5.123-.316 3.434 3.434 0 01-.665-1.243v.013zm157.418 5.454c-.188-3.264.314-9.129-3.243-10.853a9.552 9.552 0 00-3.439-.645c-31.246-.308-111.033 1.179-124.783 1.179.543 2.635.634 5.34.27 8.005 22.708-.342 45.379-.836 68.087-1.289.139 7.141 1.762 25.167 1.884 26.407.12 1.139 0 2.817 1.121 3.529a31.662 31.662 0 008.651.926c7.244.176 46.623.157 50.476-2.428 1.256-.848 1.102-2.807 1.158-4.137.29-6.897.229-13.803-.182-20.694zM25.99 424.388c46.886-9.353 54.494-13.814 137.488-23.563 2.047-.24 2.163-3.421 0-3.264-37.746 2.727-97.199 12.365-138.144 24.437a1.254 1.254 0 00-.765.578 1.217 1.217 0 00-.124.939c.087.317.299.588.588.751.29.164.634.208.957.122zm213.072-30.699c39.03-1.706 72.283-3.754 129.921-3.754 33.714 0 32.919.669 36.496-.191a1.28 1.28 0 00.647-.454 1.243 1.243 0 000-1.484 1.278 1.278 0 00-.647-.453 29.997 29.997 0 00-7.649-.645c-65.815-.925-111.078 1.274-158.809 4.554-1.579.108-1.62 2.501.041 2.427zm207.855-4.402c19.123 1.904 62.92 2.03 146.72 15.977a168.576 168.576 0 0017.65 2.468c1.237.074 1.391-1.703.27-2.048-21.98-6.787-130.567-19.127-164.64-18.859a1.27 1.27 0 00-.83.39 1.226 1.226 0 00-.337.841c0 .312.121.613.337.841.217.229.514.368.83.39z" fill="#38A1FF"/><path d="M407.754 201.01c-2.49-.926-3.341 1.348-13.555 4.97-4.839 1.715-9.8 2.992-14.758 4.439-1.197.349-1.046 2.345.314 2.24a71.551 71.551 0 0022.94-6.414c1.935-.864 5.159-1.712 5.756-3.983a1.031 1.031 0 00-.097-.761 1.063 1.063 0 00-.6-.491zm1.972 4.452a108.222 108.222 0 01-22.325 9.788c-1.963.586-5.539.731-6.563 2.697a1.383 1.383 0 00-.122 1.022c.093.343.315.639.621.829 1.128.836 2.048.691 7.725-1.025a72.07 72.07 0 0022.325-11.192c1.234-.953-.361-2.857-1.661-2.119zm-1.545 8.329c-16.623 7.561-18.315 5.772-21.038 7.663a1.429 1.429 0 00-.576.688 1.4 1.4 0 00.457 1.631c.245.188.544.293.854.3a14.072 14.072 0 005.523-1.175 69.735 69.735 0 0016.014-7.022c.277-.162.478-.426.558-.733a1.19 1.19 0 00-.127-.908 1.228 1.228 0 00-.74-.558 1.247 1.247 0 00-.925.114z" fill="#191919"/><path d="M374.157 239.295a1.76 1.76 0 00.509-1.234c0-.461-.183-.904-.509-1.234-.386-.343-.735-.685-1.121-1.025 3.454-1.73 7.034-.996 16.84-3.393a82.792 82.792 0 0019.195-6.944c.225-.136.392-.347.472-.593a1.063 1.063 0 00-.035-.753 1.09 1.09 0 00-.526-.547 1.12 1.12 0 00-.762-.079 134.022 134.022 0 01-31.322 7.663 14.998 14.998 0 00-6.594 2.126c-3.168-2.885-11.972-11.041-13.326-12.22 5.134-1.749 7.316-6.343 11.471-10.624 6.735-6.932 14.073-3.45 20.278-8.12 1.771-1.333.154-4.319-1.815-3.036a27.998 27.998 0 01-10.623 3.113c-12.736 2.49-12.83 12.692-21.396 16.967a7.688 7.688 0 00-6.908-.836 113.514 113.514 0 00-29.701 11.649c2.845-15.369 5.765-45.766-.694-59.457 2.047-.756.537-11.291.314-13.852-2.374-26.481-9.963-62.289-28.423-81.653-5.296-6.15-12.786-10.074-20.935-10.967-1.271-.155-1.548 1.91-.314 2.202 18.344 4.32 28.907 23.866 35.3 41.284a20.346 20.346 0 00-5.058 5.349c-4.396 4.936-3.878 12.491-4.249 17.227a75.094 75.094 0 00-12.977.188 331.038 331.038 0 00-46.384 6.377c-15.989 3.362-43.103 10.637-56.696 19.54-11.967 7.839-15.132 18.618-13.169 25.297-6.836 1.138-10.544 6.716-15.022 11.498a46.343 46.343 0 00-10.893 9.067 442.537 442.537 0 00-53.295 67.654 243.78 243.78 0 005.947-53.272c0-2.848-.75-3.856-4.016-4.06-5.56-.349-11.163-.663-16.724-.987-3.453-.201-12.352-2.379-15.294-.836-6.202 3.254-11.304 20.719-13.788 26.941a175.627 175.627 0 00-12.912 59.143c-.443 18.417 2.67 39.645 18.576 49.36 15.028 9.181 34.99 4.056 49.977-5.121 18.727-11.467 58.24-57.422 64.495-57.144 10.701.472 14.463 161.167 21.591 230.45.596 5.809 2.173 7.854 9.655 8.539 27.259 2.496 27.196 2.974 28.54 1.404a4.297 4.297 0 00.772-2.317 1373.508 1373.508 0 009.693-266.544c-.235-3.986.314-8.462.465-12.825a9.32 9.32 0 012.363-3.81 9.55 9.55 0 013.892-2.301c3.476 2.847 8.422 2.585 12.902 1.974 3.6-.494 7.18-1.111 10.736-1.851a18.627 18.627 0 009.385-3.264.956.956 0 00.23-.379c.797 13.5 3.498 29.434 11.932 40.185 21.122 26.88 66.75-8.459 89.951-33.919zm-59.167-72.806a21.773 21.773 0 00-9.078-6.787 27.204 27.204 0 01-10.311-6.871 19.95 19.95 0 01-3.976-8.459 18.799 18.799 0 002.779-3.949 30.205 30.205 0 019.964 3.758 22.231 22.231 0 003.014 1.974c4.082 1.669 3.489-4.235 4.396-6.565 1.513 7.762 2.782 22.234 3.212 26.889v.01zm-151.395 52.315c-4.537-3.048-7.85-6.932-18.73-8.422-1.316-.179-1.429-2.132 0-2.126a29.16 29.16 0 0111.126 2.391 28.726 28.726 0 019.306 6.451c.776 1.012-.694 2.385-1.702 1.706zm11.084-25.232a41.003 41.003 0 00-18.497-2.542c7.074-7.645 12.063-7.302 23.327-2.808a21.328 21.328 0 00-4.83 5.35zm3.09 1.024a20.17 20.17 0 015.407-4.779 195.988 195.988 0 0132.675 18.06 20.727 20.727 0 00-5.523 3.702 126.386 126.386 0 00-32.559-16.983zm35.482 46.633a25.557 25.557 0 01-4.751-3.792 40.631 40.631 0 00-17.534-7.478.936.936 0 01-.546-.384.908.908 0 01-.146-.644.924.924 0 01.327-.577.956.956 0 01.636-.215c10.069-.083 22.218 8.376 23.443 12.066.289.833-.722 1.329-1.416 1.024h-.013zm19.27-5.309c-1.626-10.125-10.676-16.699-19.386-22.502.502-.38.995-.772 1.504-1.102a43.921 43.921 0 004.443-2.125c7.957 5.932 17.141 13.318 17.804 22.918a13.557 13.557 0 00-4.352 2.811h-.013zm86.755 40.142c-20.984 8.301-37.124 2.159-42.484-32.593-2.057-13.355-1.177-26.84-1.272-40.26a1.056 1.056 0 00-.336-.715 1.095 1.095 0 00-1.49 0 1.052 1.052 0 00-.337.715 169.298 169.298 0 00-1.083 29.181.86.86 0 00-.246-.344.886.886 0 00-.382-.189c-3.407-.83-3.863.617-17.729 2.998a29.889 29.889 0 01-13.053.343c.077-.207.116-.425.116-.645.113-14.5-15.455-25.115-28.574-33.543a189.926 189.926 0 00-22.554-12.408c-6.792-3.159-14.677-7.247-22.401-7.096-1.055-19.744 19.565-27.246 38.936-33.543 43.919-14.277 79.354-13.842 87.518-14.913a25.947 25.947 0 01-2.703 7.969c-.066-.3-.24-.566-.49-.749a1.31 1.31 0 00-1.692.127 1.26 1.26 0 00-.368.813c-.239 3.415.4 6.835 1.858 9.944a20.502 20.502 0 006.485 7.85c5.928 4.406 12.921 4.319 17.11 13.207 3.215 6.824 3.24 15.061 3.397 22.425.666 31.054-7.052 47.629-7.878 55.32-.151 1.407 1.931 1.784 2.587.685a59.492 59.492 0 005.137-16.467c.231.079.478.103.72.07.242-.033.472-.123.671-.262a113.17 113.17 0 0128.037-11.498c2.629-.678 4.673-1.326 6.908.571.186.158 16.429 14.941 16.608 15.101-14.325 15.521-31.017 29.996-51.016 37.906z" fill="#191919"/><path d="M482.757 521.057c-13.169 4.313-25.026 11.801-34.487 21.78a428.45 428.45 0 0122.244-58.775c.738-1.592-.958-4.051-2.779-2.734-19.474 14.014-34.114 33.549-41.951 55.981a246.66 246.66 0 01-3.821-35.061 1.992 1.992 0 00-.433-1.193 2.055 2.055 0 00-1.073-.703 2.083 2.083 0 00-1.287.064c-.411.157-.76.44-.994.807a84.362 84.362 0 00-10.362 41.814c-12.533-17.454-28.781-32.02-47.618-42.687a1.958 1.958 0 00-1.324-.2 1.924 1.924 0 00-1.136.698c-.281.36-.421.806-.395 1.258.026.453.217.88.538 1.206 15.515 15.94 27.402 34.941 34.873 55.74.537 1.444 2.851.873 2.395-.645-5.241-17.231-13.832-33.3-25.299-47.318 15.359 10.944 28.488 24.627 38.701 40.337 1.005 1.542 4.082 1.098 3.862-1.025a81.114 81.114 0 015.869-40.185 260.354 260.354 0 005.058 35.971c.127.417.387.782.742 1.042a2.087 2.087 0 002.457 0c.355-.26.615-.625.742-1.042 5.895-22.056 18.54-41.804 36.226-56.572a416.896 416.896 0 00-21.744 61.126c-.102.463-.035.946.188 1.366.223.42.588.75 1.033.933a2.1 2.1 0 001.401.069c.461-.138.859-.43 1.124-.826 8.276-10.951 19.347-19.564 32.094-24.97-7.414 9.943-15.55 21.33-13.053 33.735.314 1.518 2.618 1.098 2.666-.343.442-14.305 10.013-25.355 17.879-36.653a2.065 2.065 0 00-.201-2.226 2.12 2.12 0 00-.954-.689 2.16 2.16 0 00-1.181-.08z" fill="#38A1FF"/><path d="M592.402 132.748c-16.39-89.758-81.988-81.752-177.463-79.494A4336.168 4336.168 0 00287.49 58.15c-9.653.527-19.732.574-28.926 3.757a46.587 46.587 0 00-19.427 13.266c-15.097 17.007-18.112 40.305-18.922 62.533-.031.799 1.341 1.024 1.466.191 2.94-19.704 4.899-53.49 29.856-69.02a54.293 54.293 0 0125.989-6.831c41.172-2.57 82.457-3.89 123.663-4.97 110.107-2.894 166.342-9.02 185.42 65.377 11.618 45.282 5.103 108.611 4.789 126.239-.314 0-228.005 3.325-228.325 3.341-.278.02-.537.143-.725.343a1.071 1.071 0 000 1.473c.188.2.447.323.725.343 12.61.728 23.035.494 43.909.494-.113 54.404 3.388 93.009 3.787 246.408-.002.34.114.671.329.938a1.533 1.533 0 001.858.413c.311-.149.561-.398.708-.706a6.764 6.764 0 001.2-3.452c0-.371-1.523-191.847-5.062-243.678 3.052 0 6.104-.037 9.106-.037-.078 36.767 1.57 73.574 2.28 110.341 2.512 132.757-.242 129.53 3.281 133.639a5.693 5.693 0 011.429 3.529c.141 4.402.81-10.585.772-19.691-.085-20.216-1.768-180.436-5.058-227.895l13.593-.115c-.113 54.796 3.454 95.191 3.786 246.26.002.256.085.504.236.711a1.263 1.263 0 001.371.465c.25-.071.471-.217.632-.417 0-.04.038-.04.038-.077a8.075 8.075 0 001.777-5.084c0-.345-1.57-190.563-5.058-241.932 2.348-.027 142.826-2.03 151.162-2.884 3.838-.395 4.478-.435 4.594-1.327 3.709-28.24 5.498-79.886-1.341-117.347z" fill="#191919"/></svg>