<svg width="50" height="50" fill="none" xmlns="http://www.w3.org/2000/svg"><g clip-path="url(#clip0_98_465)"><path d="M38.281 0H11.72C5.247 0 0 5.247 0 11.719V38.28C0 44.753 5.247 50 11.719 50H38.28C44.753 50 50 44.753 50 38.281V11.72C50 5.247 44.753 0 38.281 0z" fill="url(#paint0_radial_98_465)"/><path d="M38.281 0H11.72C5.247 0 0 5.247 0 11.719V38.28C0 44.753 5.247 50 11.719 50H38.28C44.753 50 50 44.753 50 38.281V11.72C50 5.247 44.753 0 38.281 0z" fill="url(#paint1_radial_98_465)"/><path d="M25.002 5.469c-5.304 0-5.97.023-8.054.118-2.079.095-3.498.424-4.74.907a9.562 9.562 0 00-3.46 2.252 9.587 9.587 0 00-2.254 3.46c-.485 1.242-.814 2.662-.908 4.74-.093 2.084-.117 2.75-.117 8.054 0 5.305.023 5.968.118 8.052.095 2.079.425 3.498.907 4.74a9.57 9.57 0 002.253 3.46 9.563 9.563 0 003.459 2.254c1.242.483 2.662.812 4.74.908 2.084.094 2.75.118 8.053.118 5.305 0 5.969-.024 8.052-.118 2.08-.096 3.5-.425 4.743-.908a9.554 9.554 0 003.458-2.254 9.588 9.588 0 002.254-3.46c.48-1.242.81-2.662.907-4.74.094-2.083.118-2.747.118-8.052 0-5.304-.024-5.97-.118-8.053-.097-2.08-.427-3.499-.907-4.74a9.588 9.588 0 00-2.254-3.46 9.544 9.544 0 00-3.459-2.253c-1.245-.483-2.665-.812-4.745-.907-2.083-.095-2.746-.118-8.052-.118h.006zm-1.752 3.52h1.752c5.215 0 5.833.018 7.892.112 1.904.087 2.938.405 3.627.672a6.036 6.036 0 012.244 1.461c.684.684 1.107 1.335 1.462 2.246.267.688.586 1.722.672 3.626.094 2.059.114 2.677.114 7.89 0 5.212-.02 5.83-.114 7.89-.087 1.904-.405 2.937-.672 3.625a6.037 6.037 0 01-1.462 2.244 6.04 6.04 0 01-2.245 1.46c-.687.27-1.722.587-3.626.674-2.059.093-2.677.113-7.892.113s-5.834-.02-7.892-.113c-1.905-.088-2.938-.406-3.627-.674-.912-.354-1.563-.777-2.247-1.46a6.054 6.054 0 01-1.461-2.245c-.267-.688-.586-1.722-.673-3.626-.093-2.059-.112-2.677-.112-7.893 0-5.216.019-5.831.112-7.89.087-1.904.406-2.938.673-3.626a6.05 6.05 0 011.462-2.246c.684-.684 1.334-1.107 2.246-1.462.688-.269 1.722-.586 3.627-.673 1.801-.082 2.5-.106 6.14-.11v.004zm12.178 3.242a2.344 2.344 0 100 4.689 2.344 2.344 0 000-4.69v.001zM25.002 14.97c-5.54 0-10.03 4.49-10.03 10.03 0 5.54 4.49 10.028 10.03 10.028C30.54 35.028 35.03 30.54 35.03 25c0-5.539-4.49-10.03-10.03-10.03zm0 3.52a6.51 6.51 0 110 13.02 6.51 6.51 0 010-13.02z" fill="#fff"/></g><defs><radialGradient id="paint0_radial_98_465" cx="0" cy="0" r="1" gradientUnits="userSpaceOnUse" gradientTransform="scale(46.0889 49.5537) rotate(-90 .687 .4)"><stop stop-color="#FD5"/><stop offset=".1" stop-color="#FD5"/><stop offset=".5" stop-color="#FF543E"/><stop offset="1" stop-color="#C837AB"/></radialGradient><radialGradient id="paint1_radial_98_465" cx="0" cy="0" r="1" gradientUnits="userSpaceOnUse" gradientTransform="matrix(4.34757 21.71996 -89.53026 17.92079 -8.375 3.602)"><stop stop-color="#3771C8"/><stop offset=".128" stop-color="#3771C8"/><stop offset="1" stop-color="#60F" stop-opacity="0"/></radialGradient><clipPath id="clip0_98_465"><path fill="#fff" d="M0 0h50v50H0z"/></clipPath></defs></svg>