<svg width="56" height="56" fill="none" xmlns="http://www.w3.org/2000/svg"><path d="M28 4.667A23.334 23.334 0 004.667 28c0 10.313 6.696 19.063 15.96 22.166 1.166.187 1.54-.536 1.54-1.166v-3.944c-6.464 1.4-7.84-3.126-7.84-3.126-1.074-2.707-2.59-3.43-2.59-3.43-2.124-1.447.163-1.4.163-1.4 2.333.163 3.57 2.403 3.57 2.403C17.5 43.05 20.93 42 22.26 41.44c.21-1.517.817-2.543 1.47-3.127-5.18-.583-10.617-2.59-10.617-11.48 0-2.59.887-4.666 2.404-6.323-.234-.584-1.05-3.01.233-6.16 0 0 1.96-.63 6.417 2.38 1.843-.514 3.85-.77 5.833-.77s3.99.256 5.833.77c4.457-3.01 6.417-2.38 6.417-2.38 1.283 3.15.467 5.577.233 6.16 1.517 1.656 2.404 3.733 2.404 6.323 0 8.913-5.46 10.873-10.664 11.457.84.723 1.61 2.147 1.61 4.316V49c0 .63.374 1.377 1.564 1.166C44.66 47.04 51.333 38.313 51.333 28A23.333 23.333 0 0028 4.666z" fill="#000"/></svg>