<svg width="50" height="50" fill="none" xmlns="http://www.w3.org/2000/svg"><g clip-path="url(#clip0_98_474)"><path d="M26.538 38.956c-1.733-3.401-3.76-6.844-7.724-6.844-.756 0-1.514.13-2.205.432l-1.351-2.678c1.636-1.416 4.289-2.532 7.698-2.532 5.299 0 8.016 2.555 10.182 5.811 1.278-2.775 1.88-6.534 1.88-11.198 0-11.63-3.63-17.594-12.126-17.594-8.373 0-11.995 5.966-11.995 17.594 0 11.572 3.622 17.481 11.995 17.481 1.335 0 2.54-.147 3.646-.472zm2.076 4.061a22.05 22.05 0 01-5.712.766C11.753 43.783.839 34.888.839 21.948.84 8.895 11.751 0 22.902 0c11.335 0 22.136 8.83 22.136 21.948 0 7.3-3.402 13.233-8.35 17.066 1.587 2.392 3.214 3.988 5.524 3.988 2.499 0 3.5-1.905 3.686-3.435h3.247C49.333 41.602 48.308 50 39.21 50c-5.517 0-8.43-3.181-10.612-6.934l.017-.049z" fill="#000"/></g><defs><clipPath id="clip0_98_474"><path fill="#fff" d="M0 0h50v50H0z"/></clipPath></defs></svg>