<svg width="32" height="32" fill="none" xmlns="http://www.w3.org/2000/svg"><path d="M16 19.383L4.158 31.225c-.443.443-1.007.665-1.691.665-.685 0-1.249-.222-1.692-.665-.443-.443-.665-1.007-.665-1.692 0-.684.222-1.248.665-1.691L12.617 16 .775 4.158C.332 3.715.11 3.151.11 2.467c0-.685.222-1.249.665-1.692C1.218.332 1.782.11 2.467.11c.684 0 1.248.222 1.691.665L16 12.617 27.842.775C28.285.332 28.849.11 29.533.11c.685 0 1.249.222 1.692.665.443.443.665 1.007.665 1.692 0 .684-.222 1.248-.665 1.691L19.383 16l11.842 11.842c.443.443.665 1.007.665 1.691 0 .685-.222 1.249-.665 1.692-.443.443-1.007.665-1.692.665-.684 0-1.248-.222-1.691-.665L16 19.383z" fill="#000"/></svg>