<svg width="566" height="567" fill="none" xmlns="http://www.w3.org/2000/svg"><path d="M400.957 157.966c-1.981.567-65.879 46.293-71.166 50.31-5.286 4.017-15.689 18.206-14.337 19.502 2.095 2.007 20.003-4.488 22.4-5.88 2.397-1.392 69.176-48.629 72.448-50.894 3.271-2.265-7.35-13.602-9.345-13.038zM283.105 304.459c-28.317 1.627-54.254-20.979-94.712-33.663-16.98 2.963-49.148 1.324-53.77-9.177-60.483 8.976-111.502 47.345-119.426 73.143-7.593 24.685 27.508 73.469 44.355 89.405 7.437-42.369 17.778-87.485 34.206-127.292.832-2.018 2.691-.782 2.06 1.168a933.448 933.448 0 00-38.083 170.548c31.979 18.941 133.859 23.364 166.868 15.261.269-13.979 2.239-60.904 4.055-97.212-14.181-1.134-28.328-2.79-42.362-5.103-2.241-.369-1.254-2.741.943-2.447 26.392 3.55 79.806 9.767 110.653 1.302 18.961-5.205 57.884-25.232 88.862-119.637-8.96-6.733-24.194-12.545-39.202-14.175-4.097 11.83-50.515 57.077-64.447 57.879z" fill="#38A1FF"/><path d="M267.873 104.759a201.437 201.437 0 0141.084 38.408c1.876 2.232 3.962.477 5.377-1.346 18.808-24.347 28.866-38.636 54.007-59.535 1.981-1.639-.26-4.037-2.374-2.552-17.232 12.06-43.726 37.476-55.038 55.427a197.198 197.198 0 00-41.035-33.929c-2.901-1.775-4.836 1.65-2.021 3.527z" fill="#408CFF"/><path d="M284.808 102.088c4.882.567 40.319-.932 45.846-1.032 2.757-.051 2.961-4.462.159-4.354-5.578.212-41.318 1.04-46.327 1.93-2.052.363-1.514 3.238.322 3.456zm-11.693 107.963c-2.459-1.112-4.48 2.242-2.239 3.634a316.664 316.664 0 0135.842 26.031c3.419 2.861 7.624-2.588 4.245-5.474a160.345 160.345 0 00-37.848-24.191zm72.873-57.179c.121-10.572-.909-21.904-.965-32.54 0-2.694-3.742-2.243-3.719.447.092 11.267.187 22.525.283 33.774-8.445 0-46.548 1.035-55.242 2.67-.917-9.67-1.355-19.417-2.776-29.036a1.573 1.573 0 00-1.667-1.275 1.577 1.577 0 00-1.446 1.522c.45 9.446.849 19.097 1.571 28.543.385 5.026.402 4.692 5.351 4.332 17.139-1.251 34.588-2.268 51.769-2.424 4.959-.048 6.767.292 6.841-6.013zm-21.305 38.621c-9.478.122-19.81.269-29.234 1.344-9.834 1.134-9.141 1.961-8.445 10.841a59.24 59.24 0 00.895 6.957 1.77 1.77 0 003.517 0c0-1.616-.784-12.59-.566-12.86.218-.269 29.976-2.361 33.154-2.58 2.739-.19 3.41-3.739.679-3.702z" fill="#408CFF"/><path d="M292.961 234.914a1.813 1.813 0 00-3.582.314c.125 5.877.551 11.744 1.276 17.577a2.085 2.085 0 001.919 2.24c.283.023 21.963-.536 37.82-2.038 4.055-.383 1.59-4.02-.784-3.836-11.201.851-23.744 1.301-34.99 1.636-.447-5.458-.829-10.663-1.659-15.893z" fill="#408CFF"/><path d="M196.727 183.322c-5.465-.334-8.713 6.419-5.779 7.026 1.523.314 2.015-3.502 5.533-3.479a1.774 1.774 0 001.893-1.65 1.778 1.778 0 00-1.647-1.897z" fill="#191919"/><path d="M204.366 177.264c-.816-1.644-2.264-.306-1.882 1.256 2.402 9.613 5.128 14.969 7.168 25.651 1.098 5.744-4.14 2.243-4.302 6.733a71.038 71.038 0 01-1.007 9.923 10.53 10.53 0 01-5.915-3.232c-1.007-1.324-2.753-.133-1.924 1.638a9.758 9.758 0 003.102 3.436 9.748 9.748 0 004.335 1.614c-1.814 14.458-9.441 15.286-21.641 12.757-2.241-.462-4.486-1.262-6.945-1.593-1.188-.159-4.245 2.245 3.741 4.488 0 3.884.849 23.7 1.95 27.335.467 1.525 2.87 1.343 2.734-.383-.707-8.979-.988-17.37-1.132-26.144 24.338 4.983 23.948-9.94 25.895-29.059 5.017-.72 5.244-4.879 4.48-8.865a99.487 99.487 0 00-8.657-25.555zm-68.882-41.133c-6.509-23.587-31.722-48.002-65.656-30.272-33.935 17.73-29.432 65.44-11.179 85.634 11.467 12.681 22.403 27.647 20.721 39.27-1.68 11.624 16.18 1.525 6.877-36.557-7.434-30.431 16.845-55.742 35.839-43.826a49.87 49.87 0 0113.398-14.249z" fill="#191919"/><path d="M169.353 192.278c5.068 3.014 36.572-22.447 34.633-28.299-15.565-46.939-73.45-34.766-82.729-1.191-10.412 37.675 20.585 67.224 22.558 66.966 2.867-.377 11.886-6.172 15.234-17.461a9.602 9.602 0 009.721 0c1.924-1.097.535-3.286-1.5-2.551-4.958 1.772-10.304-2.246-9.766-10.816a7.836 7.836 0 013.999-6.767 7.809 7.809 0 017.85.119zm-27.128 41.85a130.264 130.264 0 00-2.935 25.841 1.53 1.53 0 001.416 1.375 1.526 1.526 0 001.586-1.173c1.715-8.27 1.981-17.189 3.495-25.785.36-2.052-3.178-2.254-3.562-.258zm57.856-39.364c-1.29-4.496-5.541-4.691-3.874 1.639 1.517 5.732 5.235 3.09 3.874-1.639zm138.356-.603c1.35-1.361 11.32-2.138 12.076-2.379 1.718-.567 1.321-3.099-.113-3.657-2.89-1.134-11.066.493-13.8 1.984-2.733 1.492-3.192 6.49-5.623 11.737-1.248 2.694-2.92 5.171-4.01 7.921-.529 1.341 1.087 2.268 2.241 1.347 5.51-4.349 9.161-16.885 9.229-16.953zm-6.699 23.496a1.594 1.594 0 00-1.486 2.342c.176.333.465.594.815.734 19.496 7.156 18.299 20.177 21.013 23.27.586.669 4.42 2.098 3.472-3.402-1.913-11.097-12.503-22.051-23.814-22.944zm39.92-13.106c7.579 18.507 7.953 23.074 7.46 43.092-.056 2.245 3.303 3.147 3.897.85 3.444-13.29-.589-34.587-8.535-45.802-1.172-1.656-3.521.156-2.822 1.86zm-12.41 5.902c-.444 5.03-3.614 4.99-6.721 5.926-3.883 1.168-1.681 2.242 0 2.647a7.988 7.988 0 007.492-1.724 8.02 8.02 0 002.589-7.251c-.47-2.217-3.17-1.749-3.36.402zm139.044-69.97c4.302-.238 3.045-6.838-1.211-6.597-30.754 1.746-62.034-.114-91.845 1.752-3.396.21-2.799 5.361.283 5.721 17.775 2.075 75.414.108 92.773-.876zm49.998-41.156c-36.643-1.213-113.907-.85-147.958 2.739-2.779.283-3.54 5.406-.201 5.386 38.978-.244 103.236-2.86 148.787-1.417 4.347.141 3.631-6.566-.628-6.708zm-4.545 93.892c-44.38 3.686-97.57-.904-138.014 3.995-3.203.388-2.4 5.851.895 5.67 36.108-2.163 89.603-.61 137.297-2.872 4.302-.218 4.188-7.156-.178-6.793zm-51.098 31.508c-20.747-1.241-66.664-1.105-84.051-.249-3.249.162-3.719 5.65-.337 5.857 25.897 1.593 54.166 1.511 84.003.899 3.52-.071 4.259-6.277.385-6.507z" fill="#191919"/></svg>