<svg width="616" height="617" fill="none" xmlns="http://www.w3.org/2000/svg"><path d="M351.318 144.668c-10.611-15.57-31.373-13.417-47.805-13.303-38.29.256-197.163.059-208.319.617-17.183.886-34.437 7.858-37.228 24.989-1.506 9.255-.172 19.148.173 28.474 1.386 37.755 2.42 84.458 7.062 118.1 1.26 9.15 2.914 18.322 8.597 25.883 8.968 11.939 26.743 16.135 41.657 16.385.175.293 136.638 3.511 185.967-.191 14.35-1.08 31.826-2.16 41.5-14.463 4.848-6.17 5.26-15.064 6.231-22.554 3.489-26.877 5.818-72.359 8.867-121.133.872-13.929 1.549-30.702-6.702-42.804zm3.773 33.935c-.102 5.578-4.251 71.532-4.522 75.533-.924 13.531-3.896 56.098-7.737 69.391-3.797 13.12-20.86 16.35-32.453 17.584-9.823 1.065-19.712 1.676-29.59 1.996-50.697 1.642-160.816 1.296-165.227 1.179-17.864-.824-37.905-6.068-44.638-24.631a100.719 100.719 0 01-4.087-25.963c-3.36-40.485-2.843-52.704-5.418-115.021-.363-8.922-2.18-19.411 1.904-27.75 8.956-18.232 36.008-15.675 52.581-15.857 19.494-.213 184.93-.336 195.171-.419 9.104-.074 18.932-.537 27.412 3.421 15.295 7.129 16.869 25.658 16.604 40.524v.013zM207.966 358.014c2.387 5.399 11.325 2.669 8.205-4.541a4.548 4.548 0 00-2.897-2.584 4.514 4.514 0 00-1.984-.129 4.513 4.513 0 00-1.849.733c-1.9 1.304-3.564 4.809-1.417 6.672a.615.615 0 001.054-.438c.132-1.425-.148-2.943 1.038-4.01a2.825 2.825 0 012.311-.824c.422.045.829.185 1.19.409.361.223.668.525.897.884a3.31 3.31 0 01-.579 4.47 3.754 3.754 0 01-4.981-1.234c-.388-.642-1.284-.074-.988.592zm-12.17 33.232a72.332 72.332 0 0014.547.99c5.319.157 10.663.339 15.979.309a1.373 1.373 0 001.303-1.369 1.369 1.369 0 00-1.303-1.368c-5.316-.216-10.66-.231-15.979-.256a71.62 71.62 0 00-14.547.484.63.63 0 00-.446.605.63.63 0 00.446.605z" fill="#191919"/><path d="M374.898 131.813a32.669 32.669 0 00-17.897-17.039c-10.143-3.983-21.44-3.353-32.125-3.255-45.51.42-232.343.281-245.202.815a58.085 58.085 0 00-28.545 7.931c-19.404 12.276-14.975 32.751-14.199 55.712 1.49 44.147 2.627 98.943 7.568 138.178 1.3 10.331 2.732 20.796 8.273 29.85 9.892 16.156 29.925 22.255 48.771 22.178.727 0 42.624 1.006 90.672 1.364.074 2.539.576 5.343.86 8.021-1.047-.127-29.26.58-37.552 1.761a1.192 1.192 0 00-.868 1.623c-4.251 3.597-8.008 8.058-11.883 11.991-4.768 4.816-9.797 9.49-14.251 14.595a1.025 1.025 0 00.015 1.429 1.02 1.02 0 001.426.015c4.99-4.587 9.524-9.739 14.218-14.629 3.905-4.075 8.38-8.021 11.901-12.476a351.354 351.354 0 0137.191-1.348c.025 2.027-.083 4.427 1.925 5.455.308.163.847.049.905-.374a41.774 41.774 0 00-.329-8.021 25.268 25.268 0 00-1.494-8.021c11.199.08 22.703.121 34.071.102a27.403 27.403 0 00-.616 14.259.723.723 0 001.383 0 17.71 17.71 0 00.711-4.125c6.302.843 11.523.253 28.5 1.315 2.578.163 6.255.2 8.427.188a61.868 61.868 0 0011.189 11.8 156.662 156.662 0 0013.075 11.513c1.102.833 2.464-.99 1.472-1.913-4.395-4.026-9.015-7.792-13.401-11.843a115.642 115.642 0 00-10.682-10.082.847.847 0 00-.366-.993 20.373 20.373 0 00-8.144-1.283 375.192 375.192 0 00-11.023-.537 147.31 147.31 0 00-18.893-.66c.173-2.734.647-5.26.669-7.642 32.441-.071 63.546-.636 83.064-2.187 16.565-1.321 36.834-2.286 48.178-16.351 5.87-7.271 6.421-17.331 7.573-26.272 4.87-37.742 6.909-96.054 9.989-139.25 1.235-16.949 2.689-35.913-4.556-51.794zm1.999 38.871c-.181 5.213-4.755 80.604-5.236 88.126-1.041 15.835-4.453 65.244-8.759 80.728-4.158 14.959-22.543 19.337-35.879 20.959-11.427 1.395-22.992 2.129-34.496 2.518-58.492 1.987-188.542 1.262-190.865 1.175-21.215-.925-43.782-7.805-51.06-30.005-3.218-9.813-3.606-20.539-4.42-30.782-3.215-40.638-3-53.626-5.852-132.877-.388-10.504-2.248-22.172.74-32.42 7.022-24.038 38.644-22.465 58.156-22.721 23.075-.309 220.362-.543 232.143-.617 10.614-.056 22.046.216 31.037 6.639 14.895 10.631 15.067 32.809 14.491 49.267v.01zM18.022 490.009c1.863-2.644 45.436-51.828 47.601-54.274a13.138 13.138 0 0111.236-4.628c29.679-.173 59.367-.361 89.046.117 55.378.907 177.199-2.202 181.283-2.159 4.004.04 9.169-.882 12.224 2.061 2.914 2.81 33.055 43.868 43.591 54.866 1.639 1.706 4.223-.888 2.594-2.597-10.315-10.776-36.067-45.501-40.274-50.752a21.306 21.306 0 00-5.852-6.225c-5.258-2.625-66.248.577-92.32 1.169-30.862.707-22.925.157-187.02.114-7.26 0-12.398.309-17.181 6.26-5.501 6.852-44.599 52.272-46.351 55.206-.545.931.822 1.693 1.423.842zm382.274 11.677c2.692-4.584 8.264-12.087 5.591-12.957-4.134-1.32-387.116 2.215-387.116 2.215s-7.368.191-.308 6.771c7.06 6.581 7.392 8.262 20.137 7.769 12.745-.494 325.429-1.494 334.146-1.355 8.716.139 25.844.46 27.55-2.443z" fill="#191919"/><path d="M58.7 458.971c-2.711 3.363-14.745 15.752-15.231 18.818a1.341 1.341 0 00.585 1.444c1.645 1.055 51.578 0 62.706-.04 23.506-.099 190.174.926 194.391.981 3.224.04 5.507-.645 3.927-4.263-5.387-12.34-10.737-24.68-16.21-36.983-1.392-3.119-2.504-3.539-5.852-3.523 0 0-199.945 0-206.268-.074a1.14 1.14 0 00-1.083 1.143 1.146 1.146 0 001.083 1.143c39.526.385 197.055-.108 208.146.552.897.055-.308-2.033 17.298 37.726.246.552.181 1.543-2.735 1.614-2.024.043-195.408-.775-239.701-.445-2.353 0-12.339.42-12.265-.172.247-1.987 15.637-18.368 28.77-38.526.453-.694-.615-1.262-1.084-.635-.024-.01-10.463 13.774-16.478 21.24zm251.743 11.744a48.51 48.51 0 003.872 8.558c.924 1.268 1.54 1.253 3.08 1.302 8.587.268 32.475-.824 56.363-.355 1.581.034 8.095 1.03 8.008-1.542-.126-3.776-11.577-17.116-27.365-41.793-1.802-2.82-2.578-2.992-6.142-2.835-5.827.247-40.151 1.484-51.479 1.851-1.506.049-1.515 2.4 0 2.351 58.462-1.851 53.962-1.993 54.319-1.765 1.152.734 2.307 3.573 3.046 4.708 1.648 2.508 21.702 32.414 23.522 35.03 1.087 1.558.025 1.469-2.156 1.425-2.464-.055-55.973.29-57.713.275-2.156-.028-3.209-4.239-4.09-6.121-11.292-24.174-13.09-27.897-16.176-32.941-.487-.793-1.747-.553-1.402.256 5.403 12.667 9.406 20.481 14.313 31.596z" fill="#191919"/><path d="M175.216 200.216c-1.01-13.176 4.62-26.716 10.164-32.392a32.21 32.21 0 0142.532-1.311 44.2 44.2 0 0114.704 27.426c.6 2.523 2.772 8.9-5.852 9.483-.616.043-2.381-1.515-2.628-1.993-2.464-4.785-2.873-10.301-4.955-15.249a27.462 27.462 0 00-13.214-14.546 18.49 18.49 0 00-18.994 1.774 28.309 28.309 0 00-9.104 17.128c-2.816 17.991 4.207 30.739 5.993 31.507a7.525 7.525 0 003.154.379c8.47-.206 42.15-1.542 50.167-1.379.85.019 2.744.309 3.277 1.79 1.919 5.318.832 18.232.727 19.552-.409 5.091-3.523 1.793-8.729 5.072-17.402-2.159-23.491-3.026-26.796-2.07a5.132 5.132 0 00-1.885.888 5.145 5.145 0 00-1.382 1.562 5.334 5.334 0 003.129 6.719c2.525 1.123 5.565 1.477 7.598 2.573-.172 3.393.231 4.683.065 8.088a5.919 5.919 0 00.246 2.549 3.953 3.953 0 003.139 2.159 11.664 11.664 0 003.951-.339 36.471 36.471 0 012.092-12.47c2.559.429 5.424 1.469 7.983 1.897.308.068-2.245 8.537-1.768 11.958.173 1.212 2.205.882 2.403 1.129 2.99 3.801 4.133 4.578 6.2 5.081 2.322.568 2.676 1.623 3.11 4.412 3.08 19.657-16.773 37.411-37.209 37.766-11.451.207-31.277 0-45.627-20.731a27.544 27.544 0 01-5.236-15.468c.368-1.335.979-2.59 1.802-3.702 4.949-4.739 8.827-8.848 8.159-17.514-.552-7.191-3.49-13.697-10.34-14.984-.591-.104-1.943-2.144-2.033-2.745a73.284 73.284 0 01-.437-19.22 2.73 2.73 0 011.195-1.147c3.859-.824 13.617-.256 17.451-.981a3.757 3.757 0 001.029-2.91 72.702 72.702 0 01-4.081-19.741z" fill="#38A1FF"/><path d="M290.538 217.835c-.352 5.794-3.878 75.74-2.446 81.419a.781.781 0 001.209.4c.134-.1.233-.24.282-.4 1.651-5.389 1.7-74.592 1.614-81.419a.33.33 0 00-.563-.233.326.326 0 00-.096.233zm153.654 26.444a35.567 35.567 0 00-25.943 2.101c-10.472 5.124-17.306 15.836-21.399 27.21a11.974 11.974 0 00-6.065-5.127c-4.583-1.706-13.74 0-13.992 6.105a.928.928 0 00.572.855.924.924 0 001.008-.204c3.218-2.582 6.708-5.22 11.088-3.588a8.118 8.118 0 015.211 6.3 8.71 8.71 0 01-4.959 8.638 10.617 10.617 0 01-6.888-.02 10.636 10.636 0 01-5.432-4.244c-.151-.182-.523-.157-.496.123.65 6.926 10.358 9.872 16.056 6.081-2.901 16.921.73 36.866 16.044 44.674a31.884 31.884 0 0024.916 1.93 31.924 31.924 0 0011.029-6.411 31.979 31.979 0 007.646-10.222c.98-2.005-1.992-3.776-3.012-1.765a28.376 28.376 0 01-14.71 14.142 28.307 28.307 0 01-20.38.601c-15.305-4.936-20.079-22.412-18.884-36.899a77.027 77.027 0 017.648-26.692 37.93 37.93 0 0113.601-16.674 33.287 33.287 0 0124.301-4.042c13.411 2.894 21.274 18.652 20.048 31.285-.068.661.887.692 1.087.142 4.777-13.117-5.328-29.896-18.095-34.299z" fill="#191919"/><path d="M440.749 308.629c-4.654 3.598-9.187 7.654-15.354 8.021-10.891.664-21.483-12.528-14.054-32.284 3.662-9.73 11.658-23.261 23.371-23.631a13.468 13.468 0 017.144 1.732 13.496 13.496 0 015.176 5.228c1.516 2.992.709 6.151 1.796 9.125.308.858 1.712 1.305 2.174.29 2.948-6.497-1.598-14.499-7.327-17.705-8.624-4.822-18.44-.925-24.615 5.948-11.31 12.605-21.776 39.611-3.721 51.427 9.015 5.905 20.162.669 26.254-7.034.468-.564-.148-1.656-.844-1.117zM218.108 246.38a37.75 37.75 0 0113.164.661c20.288 2.505 40.493 7.734 53.493 6.845.478-.034.669-.786.117-.891-9.009-1.722-18.276-2.003-27.332-3.564-8.67-1.49-17.306-3.205-26.023-4.368a46.921 46.921 0 00-13.573-1.092 8.627 8.627 0 00-8.008-3.6c-10.358.065-12.579 11.312-8.686 17.958a22.724 22.724 0 004.62 5.593 2.414 2.414 0 01.69 2.671c-1.167 3.132-3.785 10.067-5.926 14.882a1.336 1.336 0 00.09 1.249 1.324 1.324 0 001.087.618c6.049.163 12.357.401 18.391.271a1.317 1.317 0 001.277-1.177 1.34 1.34 0 00-.082-.621c-2.061-5.328-3.219-10.301-5.329-15.447a2.358 2.358 0 01.678-2.742 8.47 8.47 0 002.898-6.772c4.928 1.882-.536 9.076 1.34 12.544 1.078 2.002 6.363 2.825 8.356 2.341 3.57-.87 2.593-10.001 3.754-11.942.718-1.212 5.772.364 5.954.685-.083.974-.28 1.934-.585 2.863-.502 2.776-2.772 7.765.708 9.02 1.324.214 2.663.327 4.004.337 1.03.321 2.088.54 3.16.654 3.453-.266 2.637-5.587 3.204-8.29.797-3.859 2.79-2.844 5.919-2.258a286.37 286.37 0 0028.41 4.865c1.3.108 1.623-2.11.308-2.308-7.7-1.166-15.298-2.295-22.903-3.976a49.111 49.111 0 00-11.131-2.268c-2.288.099-2.396 1.765-2.772 3.77a24.722 24.722 0 01-1.096 6.76c-.955 1.428-2.338.617-3.875.481-3.68-.33-2.331-2.138-2.248-2.641.335-2.021 2.347-7.222.502-8.922a20.26 20.26 0 00-7.7-1.74c-1.303.198-1.509.842-1.885 1.972a47.611 47.611 0 00-1.032 5.102c-.222 1.049.249 6.127-3.835 4.936-2.297-.907-2.587-1.234-2.858-3.733-.271-2.499 1.137-5.189.841-7.644-.222-1.882-.782-2.055-2.667-2.499-2.024-.478-4.399-.265-6.093-1.691-3.394-2.85-.406-6.099 2.674-6.892zm150.772 2.607v.552c0 .05.084.05.084 0 0-.182 0-.37.024-.552-.003-.058-.108-.065-.108 0zM128.372 408.004s162.809-2.104 164.389-1.759c1.58.346-.388 10.893-5.236 10.862-4.848-.03-150.288 1.145-152.642.213-2.353-.931-9.021-9.283-6.511-9.316zm339.305-145.699c5.504.065 44.235-4.353 49.668-3.8 5.566.567 76.769 14.974 82.304 14.734.419 0 .684-.667.237-.874-5.15-2.347-75.263-16.042-81.839-16.631-5.673-.496-40.588 2.184-50.426 6.068a.262.262 0 00-.144.103.258.258 0 00.037.331.248.248 0 00.163.069z" fill="#191919"/><path d="M443.558 288.528c42.196 1.909 61.292-18.665 91.045-12.649 1.315.262 3.169.247 3.45-1.064.308-1.395-1.605-1.956-2.997-2.259a54.8 54.8 0 00-33.514 2.086 199.91 199.91 0 01-57.984 13.265.31.31 0 000 .621z" fill="#191919"/><path d="M447.146 297.002c13.724 15.684 39.461 9.187 56.863 6.136 17.14-3.011 30.988 4.659 47.586 6.787 5.796.753 13.154 1.395 18.557-1.302.97-.487.36-1.721-.496-1.829-3.696-.453-9.345 1.444-21.422-1.058-7.466-1.543-14.429-4.319-21.732-6.3-18.348-4.936-36.344 5.862-54.491 4.363-22.124-1.814-29.063-15.425-29.501-15.425a28.584 28.584 0 004.636 8.628zm8.563 30.23c12.751.657 25.539 1.28 38.192 3.036 17.626 2.44 34.372 10.504 52.412 9.424 18.039-1.079 35.167-8.409 53.33-8.557a.97.97 0 00.487-1.79c-9.601-5.007-17.76.056-30.834 2.672-11.171 2.224-22.022 5.309-33.381 3.785-14.014-1.882-27.261-7.314-41.337-9.088a147.39 147.39 0 00-38.999-.33c-.48.083-.332.826.13.848zM72.184 474.425a.032.032 0 00.018-.012.037.037 0 00.006-.021.037.037 0 00-.006-.021.032.032 0 00-.018-.012.032.032 0 00-.017.012.037.037 0 00-.007.021c0 .007.002.015.007.021a.03.03 0 00.017.012zm216.881-11.61c-2.772-.043-7.435-.077-13.599-.102-1.484-3.717.647 1.811-5.359-13.355 5.396 0 9.533 0 12.065.031a.955.955 0 000-1.913c-2.591-.037-7.023-.071-12.859-.095-1.405-3.394-1.867-3.915-2.988-4.514a.68.68 0 00-.989.395c-.36 1.034-.406 1.663.441 4.106-10.799-.037-25.41-.058-41.734-.062a29.12 29.12 0 00-2.504-5.519.637.637 0 00-1.177.309c.041 1.748.247 3.489.616 5.198-13.894 0-28.906 0-43.788.034a900.35 900.35 0 00-.231-3.936.721.721 0 00-1.439 0c-.132 1.314-.264 2.628-.388 3.939-15.507.022-30.8.056-44.49.099a7.932 7.932 0 00-.468-3.52c-.133-.33-.567-.549-.838-.232a7.846 7.846 0 00-1.639 3.761c-15.578.053-28.844.117-37.591.191a23.26 23.26 0 002.23-4.439c.462-1.317-1.512-2.52-2.421-1.401a94.129 94.129 0 00-4.33 5.887c-2.094.012-4.188.051-6.28.117a.626.626 0 000 1.252c1.431.108 3.16.204 5.152.293-7.315 10.887-6.714 9.718-9.326 13.664-2.822.011-5.643.054-8.464.13a.626.626 0 000 1.252c1.722.123 4.214.228 7.361.309a60.087 60.087 0 00-4.142 7.564.538.538 0 00-.054.406.534.534 0 00.978.131c1.848-2.69 3.902-5.384 6.021-8.021 10.472.237 26.54.333 45.301.348a28.501 28.501 0 00-1.605 7.312c-.058.898 1.103 1.021 1.54.419a28.057 28.057 0 003.671-7.712c14.972 0 31.478-.037 48.125-.099a17.269 17.269 0 00.866 7.744 1.065 1.065 0 00.924.532 1.065 1.065 0 00.924-.532 17.241 17.241 0 001.18-7.759c16.391-.065 32.808-.145 47.915-.213a31.812 31.812 0 002.828 6.916.96.96 0 001.579.085.969.969 0 00.207-.572 30.427 30.427 0 00-1.01-6.445c16.835-.077 31.853-.138 43.12-.141a33.847 33.847 0 004.167 8.021c.437.583 1.688.509 1.589-.429a32.172 32.172 0 00-1.925-7.596c5.501 0 9.881.028 12.85.074a.939.939 0 00.673-.284.954.954 0 00-.685-1.628zm-210.792.173c3.893-4.791 7.81-9.388 10.61-13.473 9.394.309 22.752.445 38.134.497a120.942 120.942 0 01-4.063 12.769c-18.618.055-34.499.126-44.681.207zm48.195-.216c2.902-9.786 3.204-9.872 3.807-12.751 13.839.034 29.156 0 44.611-.071-.696 7.753-.471 8.105-.856 12.72-15.854.023-31.708.057-47.562.102zm51.184-.108c-.179-4.119.037-5.245-.327-12.726 15.092-.071 30.227-.176 44.201-.275.77 3.008-.132-.792 3.518 12.957-14.944.013-31.188.022-47.392.044zm51.011-.028l-3.869-12.997c16.401-.117 31.004-.225 41.722-.269 2.405 6.315 1.642 3.897 5.125 13.328-11.156-.041-26.146-.059-42.978-.062zm135.212 2.582c-1.66-.595-3.135-.833-10.318-.734a175.155 175.155 0 00-9.283-15.999 32.118 32.118 0 009.145-.815.968.968 0 000-1.851 33.632 33.632 0 00-11.255-.561 247.186 247.186 0 00-3.08-4.51.836.836 0 00-1.13-.282.836.836 0 00-.311 1.124l2.1 3.751c-5.134.188-13.444.543-18.889.79a30.425 30.425 0 00-4.559-5.679.547.547 0 00-.905.527 31.249 31.249 0 001.999 5.312 56.056 56.056 0 00-10.947.948.626.626 0 00-.451.606.635.635 0 00.451.606 41.713 41.713 0 0012.388.672c1.645 3.033 3.511 5.988 5.054 8.845 1.248 2.302 2.421 4.77 3.675 7.198a50.488 50.488 0 00-11.806.888.613.613 0 00-.359.213.612.612 0 000 .787c.091.11.218.186.359.212a51.749 51.749 0 0013.346.75 35.527 35.527 0 004.389 6.303c.459.512 1.192-.043 1.075-.617a29.142 29.142 0 00-1.799-5.689 2293.41 2293.41 0 0019.404-.167 37.944 37.944 0 003.299 4.98c.468.617 1.589.308 1.333-.559a37.344 37.344 0 00-1.657-4.451 28.494 28.494 0 008.763-.744.97.97 0 00-.031-1.854zm-32.497-.157c-1.503-2.996-3.259-5.896-4.789-8.675-1.275-2.308-2.563-4.853-3.98-7.337 4.62-.101 10.728-.271 18.915-.496 4.459 8.021 7.059 12.83 8.787 15.989-4.078.059-8.067.195-18.933.506v.013z" fill="#191919"/></svg>