<svg width="628" height="617" viewBox="0 0 628 617" fill="none" xmlns="http://www.w3.org/2000/svg">
<path d="M83.7287 176.382C81.2764 175.688 33.6363 164.351 32.71 164.129C30.2174 163.477 27.6422 163.183 25.0641 163.256C14.2656 163.944 11.2481 176.975 24.367 184.428C30.7349 188.044 37.6429 190.786 44.1804 194.028C49.9236 196.282 54.7824 200.282 58.0467 205.443C58.235 205.739 58.5248 205.959 58.8637 206.063C59.2026 206.167 59.5682 206.149 59.8946 206.011C60.221 205.874 60.4866 205.626 60.6435 205.313C60.8004 205 60.8383 204.643 60.7502 204.305C58.1911 191.733 29.4789 186.057 21.9335 178.082C18.624 174.584 18.266 168.185 24.0216 167.078C28.0345 166.307 27.9874 166.84 78.2431 178.918C82.3251 179.899 88.4701 180.818 90.7184 184.875C94.5554 191.792 82.0834 199.837 85.4275 208.892C85.518 209.153 85.7062 209.369 85.9537 209.499C86.2012 209.628 86.4895 209.659 86.7599 209.587C87.0303 209.515 87.2625 209.344 87.4093 209.109C87.5561 208.875 87.6064 208.594 87.5501 208.324C85.6661 200.692 97.8713 193.775 94.6591 184.57C93.0137 179.856 88.2032 177.653 83.7287 176.382Z" fill="#191919"/>
<path d="M265.362 553.474C262.944 542.837 248.943 542.013 232.844 537.309C226.863 536.059 221.439 532.978 217.354 528.507C216.196 527.443 214.641 529.078 215.115 530.29C219.734 542.078 249.323 542.717 258.177 549.072C261.927 551.762 263.785 557.852 258.601 560.153C254.127 562.137 248.239 560.989 243.529 560.721C236.935 560.344 210.738 558.919 204.279 558.561C199.761 558.308 193.289 558.712 189.757 555.334C183.693 549.51 195.195 538.897 190.105 530.346C189.408 529.17 187.49 529.923 188.099 531.256C191.468 538.629 180.309 547.696 185.782 556.3C188.557 560.665 194.162 561.723 199.026 562.066C200.967 562.205 239.724 564.278 241.664 564.383C247.112 564.676 253.257 565.728 258.579 564.117C260.896 563.557 262.899 562.132 264.165 560.146C265.431 558.159 265.86 555.766 265.362 553.474Z" fill="#191919"/>
<path d="M422.663 153.732C423.895 149.524 423.637 145.03 421.932 140.984C420.227 136.938 417.176 133.58 413.277 131.459C410.664 130.154 407.79 129.431 404.86 129.339C401.929 129.248 399.015 129.79 396.321 130.928C385.532 135.555 382.571 149.102 386.273 157.943C392.557 172.902 417.934 172.088 422.663 153.732ZM400.303 149.722C400.046 148.878 400.126 147.969 400.529 147.181C400.932 146.394 401.626 145.787 402.469 145.486C403.312 145.185 404.24 145.213 405.064 145.562C405.887 145.912 406.543 146.558 406.897 147.368C407.091 147.801 407.192 148.268 407.194 148.741C407.196 149.214 407.099 149.682 406.91 150.117C406.72 150.551 406.441 150.943 406.091 151.268C405.741 151.592 405.327 151.842 404.874 152.003C404.422 152.164 403.94 152.232 403.46 152.202C402.98 152.172 402.511 152.046 402.082 151.831C401.653 151.616 401.274 151.317 400.968 150.952C400.662 150.587 400.436 150.164 400.303 149.709V149.722Z" fill="#38A1FF"/>
<path d="M557.721 155.176C557.533 151.912 558.035 146.047 554.478 144.323C553.383 143.898 552.216 143.68 551.039 143.678C519.793 143.37 440.006 144.857 426.256 144.857C426.799 147.492 426.89 150.197 426.526 152.862C449.234 152.52 471.905 152.026 494.613 151.573C494.752 158.714 496.375 176.74 496.497 177.98C496.617 179.119 496.497 180.797 497.618 181.509C500.444 182.214 503.356 182.526 506.269 182.435C513.513 182.611 552.892 182.592 556.745 180.007C558.001 179.159 557.847 177.2 557.903 175.87C558.193 168.973 558.132 162.067 557.721 155.176Z" fill="#38A1FF"/>
<path d="M25.9898 424.388C72.8763 415.035 80.4845 410.574 163.478 400.825C165.525 400.585 165.641 397.404 163.478 397.561C125.732 400.288 66.2792 409.926 25.3336 421.998C25.0109 422.083 24.736 422.291 24.5693 422.576C24.4027 422.86 24.3579 423.198 24.445 423.515C24.532 423.832 24.7436 424.103 25.0334 424.266C25.3231 424.43 25.6671 424.474 25.9898 424.388Z" fill="#38A1FF"/>
<path d="M239.062 393.689C278.092 391.983 311.345 389.935 368.983 389.935C402.697 389.935 401.902 390.604 405.479 389.744C405.738 389.664 405.965 389.505 406.126 389.29C406.286 389.075 406.373 388.815 406.373 388.548C406.373 388.281 406.286 388.022 406.126 387.806C405.965 387.591 405.738 387.433 405.479 387.353C402.969 386.811 400.397 386.595 397.83 386.708C332.015 385.783 286.752 387.982 239.021 391.262C237.442 391.37 237.401 393.763 239.062 393.689Z" fill="#38A1FF"/>
<path d="M446.917 389.287C466.04 391.191 509.837 391.317 593.637 405.264C599.471 406.397 605.363 407.221 611.287 407.732C612.524 407.806 612.678 406.029 611.557 405.684C589.577 398.897 480.99 386.557 446.917 386.825C446.601 386.847 446.304 386.987 446.087 387.215C445.871 387.444 445.75 387.744 445.75 388.056C445.75 388.368 445.871 388.669 446.087 388.897C446.304 389.126 446.601 389.265 446.917 389.287Z" fill="#38A1FF"/>
<path d="M407.754 201.01C405.264 200.084 404.413 202.358 394.199 205.98C389.36 207.695 384.399 208.972 379.441 210.419C378.244 210.768 378.395 212.764 379.755 212.659C387.716 211.815 395.474 209.646 402.695 206.245C404.63 205.381 407.854 204.533 408.451 202.262C408.518 202.006 408.483 201.734 408.354 201.501C408.224 201.269 408.01 201.093 407.754 201.01Z" fill="#191919"/>
<path d="M409.726 205.462C402.688 209.55 395.198 212.834 387.401 215.25C385.438 215.836 381.862 215.981 380.838 217.947C380.667 218.26 380.624 218.625 380.716 218.969C380.809 219.312 381.031 219.608 381.337 219.798C382.465 220.634 383.385 220.489 389.062 218.773C397.115 216.361 404.673 212.573 411.387 207.581C412.621 206.628 411.026 204.724 409.726 205.462Z" fill="#191919"/>
<path d="M408.181 213.791C391.558 221.352 389.866 219.563 387.143 221.454C386.881 221.617 386.679 221.858 386.567 222.142C386.455 222.426 386.439 222.738 386.521 223.032C386.603 223.325 386.78 223.585 387.024 223.773C387.269 223.961 387.568 224.066 387.878 224.073C389.782 224.058 391.662 223.658 393.401 222.898C399.021 221.235 404.402 218.875 409.415 215.876C409.692 215.714 409.893 215.45 409.973 215.143C410.054 214.836 410.008 214.51 409.846 214.235C409.684 213.961 409.418 213.761 409.106 213.677C408.795 213.594 408.462 213.635 408.181 213.791Z" fill="#191919"/>
<path d="M374.157 239.295C374.483 238.964 374.666 238.521 374.666 238.061C374.666 237.6 374.483 237.157 374.157 236.827C373.771 236.484 373.422 236.142 373.036 235.802C376.49 234.072 380.07 234.806 389.876 232.409C396.545 230.892 402.993 228.559 409.071 225.465C409.296 225.329 409.463 225.118 409.543 224.872C409.624 224.625 409.611 224.358 409.508 224.119C409.405 223.881 409.219 223.687 408.982 223.572C408.746 223.457 408.475 223.429 408.22 223.493C398.138 227.296 387.618 229.869 376.898 231.156C374.56 231.342 372.3 232.07 370.304 233.282C367.136 230.397 358.332 222.241 356.978 221.062C362.112 219.313 364.294 214.719 368.449 210.438C375.184 203.506 382.522 206.988 388.727 202.318C390.498 200.985 388.881 197.999 386.912 199.282C383.621 201.014 380.008 202.073 376.289 202.395C363.553 204.885 363.459 215.087 354.893 219.362C353.894 218.689 352.745 218.262 351.543 218.117C350.341 217.971 349.121 218.112 347.985 218.526C337.57 220.998 327.568 224.92 318.284 230.175C321.129 214.806 324.049 184.409 317.59 170.718C319.637 169.962 318.127 159.427 317.904 156.866C315.53 130.385 307.941 94.5772 289.481 75.2127C284.185 69.0631 276.695 65.1388 268.546 64.2455C267.275 64.0913 266.998 66.1551 268.232 66.4482C286.576 70.7672 297.139 90.3138 303.532 107.732C301.53 109.198 299.815 111.011 298.474 113.081C294.078 118.017 294.596 125.572 294.225 130.308C289.902 129.996 285.56 130.059 281.248 130.496C265.651 131.525 250.149 133.656 234.864 136.873C218.875 140.235 191.761 147.51 178.168 156.413C166.201 164.252 163.036 175.031 164.999 181.71C158.163 182.848 154.455 188.426 149.977 193.208C145.893 195.662 142.219 198.72 139.084 202.275C119.132 223.078 101.283 245.735 85.789 269.929C89.7246 252.435 91.7187 234.573 91.7362 216.657C91.7362 213.809 90.9857 212.801 87.7201 212.597C82.1592 212.248 76.5574 211.934 70.9965 211.61C67.5425 211.409 58.6437 209.231 55.7016 210.774C49.5001 214.028 44.3975 231.493 41.9138 237.715C34.2127 256.563 29.8459 276.565 29.0021 296.858C28.5594 315.275 31.6711 336.503 47.5784 346.218C62.6064 355.399 82.5674 350.274 97.5546 341.097C116.282 329.63 155.795 283.675 162.05 283.953C172.751 284.425 176.513 445.12 183.641 514.403C184.237 520.212 185.814 522.257 193.296 522.942C220.555 525.438 220.492 525.916 221.836 524.346C222.313 523.661 222.581 522.858 222.608 522.029C234.479 433.687 237.725 344.433 232.301 255.485C232.066 251.499 232.615 247.023 232.766 242.66C233.229 241.221 234.04 239.914 235.129 238.85C236.219 237.785 237.554 236.996 239.021 236.549C242.497 239.396 247.443 239.134 251.923 238.523C255.523 238.029 259.103 237.412 262.659 236.672C266.033 236.451 269.28 235.322 272.044 233.408C272.15 233.301 272.228 233.171 272.274 233.029C273.071 246.529 275.772 262.463 284.206 273.214C305.328 300.094 350.956 264.755 374.157 239.295ZM314.99 166.489C312.63 163.475 309.497 161.133 305.912 159.702C301.98 158.227 298.45 155.875 295.601 152.831C293.62 150.356 292.258 147.459 291.625 144.372C292.719 143.178 293.653 141.851 294.404 140.423C297.928 141.078 301.303 142.351 304.368 144.181C305.316 144.918 306.324 145.579 307.382 146.155C311.464 147.824 310.871 141.92 311.778 139.59C313.291 147.352 314.56 161.824 314.99 166.479V166.489ZM163.595 218.804C159.058 215.756 155.745 211.872 144.865 210.382C143.549 210.203 143.436 208.25 144.865 208.256C148.699 208.316 152.482 209.128 155.991 210.647C159.5 212.165 162.664 214.359 165.297 217.098C166.073 218.11 164.603 219.483 163.595 218.804ZM174.679 193.572C168.801 191.315 162.465 190.444 156.182 191.03C163.256 183.385 168.245 183.728 179.509 188.222C177.602 189.724 175.969 191.533 174.679 193.572ZM177.769 194.596C179.264 192.696 181.095 191.077 183.176 189.817C194.633 194.792 205.575 200.84 215.851 207.877C213.818 208.809 211.953 210.059 210.328 211.579C200.384 204.376 189.413 198.653 177.769 194.596ZM213.251 241.229C211.519 240.156 209.924 238.883 208.5 237.437C203.352 233.598 197.337 231.033 190.966 229.959C190.742 229.902 190.548 229.765 190.42 229.575C190.292 229.385 190.24 229.156 190.274 228.931C190.307 228.706 190.424 228.5 190.601 228.354C190.779 228.208 191.005 228.132 191.237 228.139C201.306 228.056 213.455 236.515 214.68 240.205C214.969 241.038 213.958 241.534 213.264 241.229H213.251ZM232.521 235.92C230.895 225.795 221.845 219.221 213.135 213.418C213.637 213.038 214.13 212.646 214.639 212.316C216.16 211.691 217.643 210.981 219.082 210.191C227.039 216.123 236.223 223.509 236.886 233.109C235.264 233.76 233.786 234.715 232.534 235.92H232.521ZM319.276 276.062C298.292 284.363 282.152 278.221 276.792 243.469C274.735 230.114 275.615 216.629 275.52 203.209C275.505 202.937 275.385 202.681 275.184 202.494C274.983 202.307 274.716 202.202 274.439 202.202C274.161 202.202 273.895 202.307 273.694 202.494C273.492 202.681 273.372 202.937 273.357 203.209C272.156 212.889 271.794 222.651 272.274 232.39C272.222 232.257 272.138 232.139 272.028 232.046C271.918 231.953 271.787 231.888 271.646 231.857C268.239 231.027 267.783 232.474 253.917 234.855C249.647 235.93 245.186 236.047 240.864 235.198C240.941 234.991 240.98 234.773 240.98 234.553C241.093 220.053 225.525 209.438 212.406 201.01C205.185 196.373 197.649 192.227 189.852 188.602C183.06 185.443 175.175 181.355 167.451 181.506C166.396 161.762 187.016 154.26 206.387 147.963C250.306 133.686 285.741 134.121 293.905 133.05C293.445 135.832 292.532 138.523 291.202 141.019C291.136 140.719 290.962 140.453 290.712 140.27C290.462 140.087 290.153 139.999 289.842 140.022C289.531 140.045 289.239 140.179 289.02 140.397C288.802 140.615 288.671 140.904 288.652 141.21C288.413 144.625 289.052 148.045 290.51 151.154C291.968 154.263 294.198 156.963 296.995 159.004C302.923 163.41 309.916 163.323 314.105 172.211C317.32 179.035 317.345 187.272 317.502 194.636C318.168 225.69 310.45 242.265 309.624 249.956C309.473 251.363 311.555 251.74 312.211 250.641C314.717 245.422 316.447 239.876 317.348 234.174C317.579 234.253 317.826 234.277 318.068 234.244C318.31 234.211 318.54 234.121 318.739 233.982C327.51 228.917 336.943 225.048 346.776 222.484C349.405 221.806 351.449 221.158 353.684 223.055C353.87 223.213 370.113 237.996 370.292 238.156C355.967 253.677 339.275 268.152 319.276 276.062Z" fill="#191919"/>
<path d="M482.757 521.057C469.588 525.37 457.731 532.858 448.27 542.837C454.23 522.743 461.664 503.1 470.514 484.062C471.252 482.47 469.556 480.011 467.735 481.328C448.261 495.342 433.621 514.877 425.784 537.309C423.675 525.724 422.398 514.008 421.963 502.248C421.953 501.815 421.801 501.396 421.53 501.055C421.258 500.713 420.882 500.467 420.457 500.352C420.032 500.237 419.581 500.259 419.17 500.416C418.759 500.573 418.41 500.856 418.176 501.223C411.152 514.066 407.586 528.46 407.814 543.037C395.281 525.583 379.033 511.017 360.196 500.35C359.793 500.13 359.323 500.059 358.872 500.15C358.42 500.241 358.017 500.489 357.736 500.848C357.455 501.208 357.315 501.654 357.341 502.106C357.367 502.559 357.558 502.986 357.879 503.312C373.394 519.252 385.281 538.253 392.752 559.052C393.289 560.496 395.603 559.925 395.147 558.407C389.906 541.176 381.315 525.107 369.848 511.089C385.207 522.033 398.336 535.716 408.549 551.426C409.554 552.968 412.631 552.524 412.411 550.401C410.927 536.735 412.944 522.921 418.28 510.216C419.126 522.306 420.816 534.325 423.338 546.187C423.465 546.604 423.725 546.969 424.08 547.229C424.435 547.488 424.866 547.629 425.309 547.629C425.751 547.629 426.182 547.488 426.537 547.229C426.892 546.969 427.152 546.604 427.279 546.187C433.174 524.131 445.819 504.383 463.505 489.615C454.674 509.413 447.404 529.848 441.761 550.741C441.659 551.204 441.726 551.687 441.949 552.107C442.172 552.527 442.537 552.857 442.982 553.04C443.427 553.223 443.922 553.247 444.383 553.109C444.844 552.971 445.242 552.679 445.507 552.283C453.783 541.332 464.854 532.719 477.601 527.313C470.187 537.256 462.051 548.643 464.548 561.048C464.862 562.566 467.166 562.146 467.214 560.705C467.656 546.4 477.227 535.35 485.093 524.052C485.278 523.701 485.357 523.305 485.321 522.911C485.286 522.517 485.137 522.141 484.892 521.826C484.647 521.512 484.316 521.273 483.938 521.137C483.56 521.001 483.15 520.973 482.757 521.057Z" fill="#38A1FF"/>
<path d="M592.402 132.748C576.012 42.99 510.414 50.9956 414.939 53.2538C372.417 54.2615 329.934 55.8935 287.49 58.1497C277.837 58.6772 267.758 58.7235 258.564 61.9072C251.034 64.6124 244.342 69.1817 239.137 75.1727C224.04 92.1803 221.025 115.478 220.215 137.706C220.184 138.505 221.556 138.73 221.681 137.897C224.621 118.193 226.58 84.4061 251.537 68.8762C259.467 64.4639 268.413 62.113 277.526 62.046C318.698 59.4762 359.983 58.1558 401.189 57.0761C511.296 54.1824 567.531 48.0556 586.609 122.453C598.227 167.735 591.712 231.064 591.398 248.692C591.084 248.692 363.393 252.017 363.073 252.033C362.795 252.053 362.536 252.176 362.348 252.376C362.159 252.576 362.054 252.839 362.054 253.112C362.054 253.385 362.159 253.648 362.348 253.849C362.536 254.049 362.795 254.172 363.073 254.192C375.683 254.92 386.108 254.686 406.982 254.686C406.869 309.09 410.37 347.695 410.769 501.094C410.767 501.434 410.883 501.765 411.098 502.032C411.314 502.298 411.615 502.484 411.953 502.56C412.291 502.635 412.644 502.594 412.956 502.445C413.267 502.296 413.517 502.047 413.664 501.739C414.375 500.716 414.789 499.523 414.864 498.287C414.864 497.916 413.341 306.44 409.802 254.609C412.854 254.609 415.906 254.572 418.908 254.572C418.83 291.339 420.478 328.146 421.188 364.913C423.7 497.67 420.946 494.443 424.469 498.552C425.339 499.535 425.842 500.78 425.898 502.081C426.039 506.483 426.708 491.496 426.67 482.39C426.585 462.174 424.902 301.954 421.612 254.495L435.205 254.38C435.092 309.176 438.659 349.571 438.991 500.64C438.993 500.896 439.076 501.144 439.227 501.351C439.379 501.558 439.592 501.714 439.838 501.798C440.083 501.881 440.349 501.887 440.598 501.816C440.848 501.745 441.069 501.599 441.23 501.399C441.23 501.359 441.268 501.359 441.268 501.322C442.427 499.873 443.054 498.081 443.045 496.238C443.045 495.893 441.475 305.675 437.987 254.306C440.335 254.279 580.813 252.276 589.149 251.422C592.987 251.027 593.627 250.987 593.743 250.095C597.452 221.855 599.241 170.209 592.402 132.748Z" fill="#191919"/>
</svg>
