<svg width="56" height="56" viewBox="0 0 56 56" fill="none" xmlns="http://www.w3.org/2000/svg">
<path d="M28 4.6665C24.9358 4.6665 21.9017 5.27004 19.0707 6.44265C16.2398 7.61526 13.6676 9.33398 11.5009 11.5007C7.12501 15.8765 4.66669 21.8115 4.66669 27.9998C4.66669 38.3132 11.3634 47.0632 20.6267 50.1665C21.7934 50.3532 22.1667 49.6298 22.1667 48.9998V45.0565C15.7034 46.4565 14.3267 41.9298 14.3267 41.9298C13.2534 39.2232 11.7367 38.4998 11.7367 38.4998C9.61335 37.0532 11.9 37.0998 11.9 37.0998C14.2334 37.2632 15.47 39.5032 15.47 39.5032C17.5 43.0498 20.93 41.9998 22.26 41.4398C22.47 39.9232 23.0767 38.8965 23.73 38.3132C18.55 37.7298 13.1134 35.7232 13.1134 26.8332C13.1134 24.2432 14 22.1665 15.5167 20.5098C15.2834 19.9265 14.4667 17.4998 15.75 14.3498C15.75 14.3498 17.71 13.7198 22.1667 16.7298C24.01 16.2165 26.0167 15.9598 28 15.9598C29.9834 15.9598 31.99 16.2165 33.8334 16.7298C38.29 13.7198 40.25 14.3498 40.25 14.3498C41.5334 17.4998 40.7167 19.9265 40.4834 20.5098C42 22.1665 42.8867 24.2432 42.8867 26.8332C42.8867 35.7465 37.4267 37.7065 32.2234 38.2898C33.0634 39.0132 33.8334 40.4365 33.8334 42.6065V48.9998C33.8334 49.6298 34.2067 50.3765 35.3967 50.1665C44.66 47.0398 51.3334 38.3132 51.3334 27.9998C51.3334 24.9357 50.7298 21.9015 49.5572 19.0706C48.3846 16.2396 46.6659 13.6674 44.4992 11.5007C42.3325 9.33398 39.7602 7.61526 36.9293 6.44265C34.0984 5.27004 31.0642 4.6665 28 4.6665Z" fill="black"/>
</svg>
