<svg width="50" height="50" viewBox="0 0 50 50" fill="none" xmlns="http://www.w3.org/2000/svg">
<g clip-path="url(#clip0_98_474)">
<path d="M26.5375 38.9562C24.8047 35.5547 22.7781 32.1125 18.8141 32.1125C18.0578 32.1125 17.3 32.2422 16.6094 32.5437L15.2578 29.8656C16.8937 28.45 19.5469 27.3344 22.9562 27.3344C28.2547 27.3344 30.9719 29.8891 33.1375 33.1453C34.4156 30.3703 35.0172 26.6109 35.0172 21.9469C35.0172 10.3172 31.3875 4.35313 22.8922 4.35313C14.5187 4.35313 10.8969 10.3187 10.8969 21.9469C10.8969 33.5187 14.5187 39.4281 22.8922 39.4281C24.2266 39.4281 25.4312 39.2812 26.5375 38.9562ZM28.614 43.0172C26.775 43.5141 24.8297 43.7828 22.9016 43.7828C11.7531 43.7828 0.83905 34.8875 0.83905 21.9484C0.83905 8.89531 11.7515 0 22.9016 0C34.2375 0 45.0375 8.82969 45.0375 21.9484C45.0375 29.2484 41.6359 35.1813 36.6875 39.0141C38.275 41.4062 39.9016 43.0016 42.2125 43.0016C44.7109 43.0016 45.7125 41.0969 45.8984 39.5672H49.1453C49.3328 41.6016 48.3078 50 39.2094 50C33.6922 50 30.7781 46.8187 28.5969 43.0656L28.614 43.0172Z" fill="black"/>
</g>
<defs>
<clipPath id="clip0_98_474">
<rect width="50" height="50" fill="white"/>
</clipPath>
</defs>
</svg>
