<svg width="618" height="617" viewBox="0 0 618 617" fill="none" xmlns="http://www.w3.org/2000/svg">
<path d="M295 289.311C294.877 298.1 295.592 306.881 297.135 315.534C302.534 344.005 329.744 315.842 344.607 326.115C350.678 330.311 347.664 349.673 351.335 356.901C356.703 367.47 369.984 360.492 378.545 361.673C383.941 362.42 388.602 365.557 394.174 365.622C395.756 365.705 397.329 365.325 398.698 364.528C400.068 363.732 401.176 362.553 401.886 361.136C404.99 354.932 400.739 349.691 401.356 343.706C401.846 338.912 407.322 336.416 406.091 330.7C405.687 328.809 399.039 320.087 400.637 318.338C401.917 316.934 405.684 318.974 406.727 319.729C416.546 326.825 414.547 342.691 419.724 352.665C423.546 360.035 430.392 365.523 429.661 374.541C428.374 390.401 417.45 396.358 426.44 414.815C430.416 422.978 439.224 427.365 444.129 434.822C447.279 439.616 450.608 471.206 458.755 454.957C464.441 443.614 458.604 416.873 456.833 404.024C452.733 374.312 443.833 334.772 420.804 313.017C407.597 300.55 391.012 294.389 374.886 286.942C356.376 278.4 338.175 270.169 318.406 264.98C310.367 262.867 301.093 258.961 296.194 268.065C297.499 265.757 296.08 265.64 295 289.311Z" fill="#38A1FF"/>
<path d="M242.259 240.516C242.643 240.602 243.051 240.56 243.459 240.392C243.866 240.225 244.266 239.935 244.634 239.541C245.003 239.146 245.333 238.653 245.605 238.092C245.878 237.53 246.088 236.91 246.223 236.268C246.358 235.626 246.415 234.974 246.392 234.35C246.368 233.726 246.264 233.142 246.086 232.632C245.908 232.122 245.658 231.696 245.353 231.379C245.047 231.062 244.691 230.859 244.304 230.783C243.92 230.697 243.513 230.739 243.105 230.906C242.697 231.073 242.298 231.363 241.929 231.758C241.561 232.153 241.231 232.645 240.958 233.207C240.685 233.768 240.476 234.388 240.341 235.03C240.206 235.673 240.148 236.324 240.172 236.948C240.195 237.572 240.299 238.156 240.478 238.666C240.656 239.176 240.905 239.602 241.211 239.919C241.517 240.237 241.873 240.44 242.259 240.516Z" fill="#191919"/>
<path d="M236.641 262.611L236.61 262.645C237.079 263.36 237.746 261.121 238.153 260.501C240.135 257.208 242.479 254.148 245.141 251.375C245.25 251.186 245.396 251.02 245.57 250.888C245.745 250.756 245.945 250.661 246.157 250.608C246.369 250.555 246.59 250.546 246.806 250.58C247.022 250.615 247.229 250.693 247.414 250.809C247.599 250.925 247.759 251.078 247.884 251.257C248.009 251.437 248.097 251.64 248.141 251.854C248.186 252.068 248.187 252.289 248.144 252.504C248.101 252.718 248.016 252.922 247.892 253.103C246.537 256.683 244.814 260.112 242.75 263.336C241.494 265.495 240.149 267.571 237.666 267.963C235.025 268.032 232.464 267.051 230.545 265.236C229.41 264.229 228.46 263.032 227.738 261.698C227.448 261.388 227.293 260.976 227.306 260.553C227.32 260.129 227.501 259.728 227.811 259.438C228.12 259.148 228.532 258.992 228.955 259.006C229.379 259.02 229.78 259.201 230.07 259.51L233.417 260.991C234.426 261.653 235.508 262.196 236.641 262.611ZM236.641 262.611H236.777C236.732 262.617 236.686 262.617 236.641 262.611Z" fill="#191919"/>
<path d="M211.536 269.166C208.055 264.003 206.187 257.923 206.168 251.696C204.587 250.605 203.083 249.406 201.667 248.108C203.016 246.116 204.176 244.002 205.131 241.793C207.979 229.777 209.142 217.443 212.464 205.495C196.811 194.722 185.989 173.479 193.535 154.432C129.515 178.686 114.364 234.972 114.867 235.12C105.39 246.072 95.518 256.749 85.7848 267.47C89.3314 272.061 93.1601 276.428 97.2487 280.544C111.082 296.339 129.111 308.926 147.294 319.307C153.01 314.781 157.909 309.234 163.336 304.372C177.644 291.554 193.569 277.635 211.051 269.049L211.536 269.166Z" fill="#38A1FF"/>
<path d="M449.263 220.861C438.386 212.532 426.892 205.04 414.88 198.452C405.26 192.646 395.049 187.883 384.419 184.242C374.527 170.005 361.377 158.336 346.064 150.208C330.751 142.079 313.718 137.726 296.382 137.511C284.147 137.313 271.452 136.727 259.646 140.321C266.692 147.574 270.703 158.122 274.787 167.25C303.546 167.71 318.166 200.775 311.727 225.661C317.805 236.743 318.486 251.267 305.116 256.366C318.69 257.792 331.755 263.493 344.604 267.781C374.482 277.733 404.453 291.576 429.583 310.891C445.245 286.78 456.452 260.055 462.673 231.986C458.491 227.943 454.008 224.224 449.263 220.861Z" fill="#38A1FF"/>
<path d="M83.8444 278.68C77.2036 289.185 71.4842 300.245 66.7504 311.736C56.0475 338.783 50.0985 367.476 49.1659 396.549C47.5678 440.917 56.0855 479.323 71.4488 517.607C71.6151 517.996 71.9258 518.304 72.3154 518.467C72.705 518.63 73.1427 518.635 73.536 518.481C73.9293 518.327 74.2472 518.027 74.4225 517.642C74.5978 517.258 74.6167 516.821 74.4752 516.423C60.2281 478.171 53.4827 437.534 54.6078 396.731C55.6068 368.273 61.3207 340.178 71.5167 313.59C75.7877 302.156 80.8289 291.025 86.6054 280.272C86.8194 279.904 86.8783 279.466 86.7693 279.054C86.6602 278.643 86.3921 278.291 86.0239 278.077C85.6557 277.863 85.2176 277.804 84.806 277.913C84.3943 278.022 84.0429 278.291 83.8289 278.659L83.8444 278.68Z" fill="#191919"/>
<path d="M73.1394 493.6C74.8735 500.768 77.9615 507.538 82.2371 513.547C83.8974 515.743 85.7823 517.759 87.861 519.563C88.1479 519.865 88.5396 520.045 88.9555 520.067C89.3713 520.088 89.7796 519.95 90.0961 519.679C90.4126 519.408 90.6132 519.027 90.6566 518.612C90.6999 518.198 90.5827 517.783 90.329 517.453C89.4344 516.089 84.4151 507.084 84.2485 506.773C80.8334 500.455 79.2508 495.778 77.77 493.091C75.99 489.882 75.302 488.695 73.9539 489.123C72.3805 489.629 72.8463 491.391 73.1394 493.6Z" fill="#191919"/>
<path d="M86.7412 487.337C89.086 494.83 92.592 501.909 97.1315 508.315C98.8695 510.655 100.787 512.856 102.866 514.899C102.994 515.073 103.156 515.219 103.341 515.33C103.526 515.441 103.731 515.514 103.945 515.545C104.159 515.576 104.377 515.564 104.586 515.509C104.795 515.455 104.991 515.36 105.162 515.229C105.334 515.098 105.478 514.934 105.586 514.747C105.693 514.56 105.763 514.353 105.79 514.139C105.817 513.924 105.801 513.707 105.743 513.499C105.685 513.291 105.586 513.097 105.452 512.927C103.931 510.379 104.168 510.428 99.5902 502.389C94.0742 492.724 93.3739 489.858 91.2237 486.418C89.1845 483.16 88.5768 482.136 87.2132 482.66C85.7848 483.209 86.1951 484.687 86.7412 487.337Z" fill="#191919"/>
<path d="M141.716 324.465C136.284 331.995 131.381 339.893 127.044 348.102C117.176 367.442 109.809 387.958 105.122 409.158C98.1094 441.242 97.7978 471.181 107.475 501.171C107.534 501.38 107.634 501.576 107.77 501.746C107.905 501.916 108.073 502.057 108.264 502.161C108.455 502.264 108.665 502.329 108.882 502.35C109.098 502.372 109.316 502.349 109.524 502.285C109.732 502.22 109.924 502.115 110.09 501.974C110.256 501.834 110.393 501.662 110.491 501.468C110.589 501.274 110.648 501.062 110.663 500.845C110.678 500.629 110.649 500.411 110.579 500.205C104.27 478.959 102.438 446.292 110.425 410.321C115.1 389.581 122.212 369.467 131.612 350.398C134.839 343.685 140.433 332.554 144.381 326.214C144.499 326.039 144.58 325.841 144.621 325.634C144.662 325.427 144.661 325.214 144.619 325.007C144.577 324.8 144.494 324.603 144.375 324.428C144.257 324.253 144.105 324.104 143.928 323.988C143.751 323.873 143.553 323.793 143.345 323.754C143.138 323.716 142.924 323.719 142.718 323.763C142.511 323.807 142.315 323.892 142.142 324.013C141.968 324.133 141.82 324.287 141.707 324.465H141.716Z" fill="#191919"/>
<path d="M437.385 325.887C440.045 331.258 444.157 342.031 446.255 347.704C452.771 364.797 457.439 382.538 460.18 400.624C464.151 426.494 463.832 452.841 459.236 478.607C459.149 479.024 459.23 479.459 459.461 479.818C459.692 480.177 460.054 480.43 460.47 480.524C460.886 480.618 461.322 480.545 461.685 480.32C462.047 480.095 462.307 479.737 462.408 479.323C468.814 453.309 469.883 426.267 465.551 399.828C462.844 381.325 457.967 363.204 451.021 345.841C447.893 338.469 444.286 331.31 440.224 324.409C440.027 324.034 439.689 323.752 439.284 323.625C438.879 323.499 438.441 323.539 438.066 323.735C437.69 323.932 437.408 324.27 437.282 324.675C437.155 325.079 437.195 325.518 437.392 325.893L437.385 325.887Z" fill="#191919"/>
<path d="M477.515 457.774C476.824 459.073 475.757 462.281 474.806 464.743C473.791 467.384 472.499 470.423 471.721 472.81C471.234 474.291 470.885 475.741 470.416 477.216C470.319 477.406 470.26 477.613 470.243 477.825C470.226 478.038 470.251 478.252 470.316 478.455C470.382 478.658 470.487 478.846 470.625 479.008C470.763 479.171 470.932 479.304 471.121 479.401C471.311 479.499 471.518 479.558 471.731 479.575C471.943 479.592 472.157 479.567 472.36 479.502C472.563 479.436 472.751 479.331 472.914 479.193C473.076 479.055 473.21 478.886 473.307 478.697C475.913 475.525 477.96 471.933 479.36 468.075C480.475 465.433 481.389 462.71 482.093 459.93C482.194 459.309 482.245 458.681 482.247 458.052C482.294 455.976 482.454 454.544 481.069 454.174C479.684 453.804 478.891 455.176 477.515 457.774Z" fill="#191919"/>
<path d="M491.071 464.256C490.002 465.874 489.109 467.601 488.405 469.408C486.67 473.106 484.684 476.68 482.46 480.106C482.084 480.723 479.934 484.376 478.947 485.835C478.8 485.99 478.686 486.173 478.61 486.372C478.535 486.571 478.499 486.784 478.505 486.997C478.511 487.21 478.56 487.42 478.647 487.614C478.734 487.809 478.859 487.984 479.014 488.13C479.17 488.277 479.352 488.391 479.551 488.467C479.751 488.542 479.963 488.578 480.176 488.572C480.389 488.566 480.599 488.517 480.793 488.43C480.988 488.343 481.163 488.218 481.31 488.063C483.256 486.606 485.029 484.931 486.594 483.071C490.657 477.972 493.573 472.057 495.146 465.73C495.402 463.617 495.763 461.997 494.288 461.513C492.814 461.029 492.249 462.442 491.071 464.256Z" fill="#191919"/>
<path d="M472.554 240.581C506.61 274.741 522.072 358.335 520.338 406.621C519.234 437.37 512.055 469.216 495.137 494.785C495.017 494.962 494.934 495.16 494.891 495.37C494.848 495.579 494.847 495.795 494.888 496.004C494.929 496.214 495.01 496.414 495.128 496.592C495.246 496.77 495.398 496.923 495.575 497.043C495.752 497.162 495.951 497.246 496.16 497.289C496.369 497.331 496.585 497.332 496.794 497.292C497.004 497.251 497.204 497.169 497.382 497.051C497.56 496.934 497.713 496.782 497.833 496.605C512.131 475.449 521.126 451.161 524.055 425.795C528.874 389.018 523.623 348.904 514.011 313.06C506.239 284.082 496.164 258.671 474.791 238.298C474.643 238.142 474.465 238.017 474.268 237.932C474.071 237.846 473.859 237.801 473.644 237.799C473.429 237.797 473.216 237.839 473.017 237.922C472.819 238.004 472.639 238.126 472.489 238.28C472.339 238.433 472.221 238.616 472.143 238.816C472.065 239.016 472.028 239.23 472.034 239.445C472.04 239.659 472.09 239.871 472.18 240.066C472.27 240.261 472.398 240.436 472.557 240.581H472.554Z" fill="#191919"/>
<path d="M442.149 136.339C416.133 116.533 413.174 69.9062 433.085 44.7881C454.68 17.5507 501.507 6.92592 532.295 22.9648C572.064 43.6868 582.242 113.324 549.263 144.486C529.67 162.996 501.606 170.709 461.729 156.055C452.033 164.909 438.962 173.741 425.943 175.987C425.642 176.045 425.331 176.015 425.046 175.902C424.761 175.788 424.515 175.595 424.336 175.346C424.158 175.096 424.054 174.801 424.038 174.495C424.022 174.189 424.095 173.884 424.246 173.618C429.272 164.893 439.125 146.093 442.149 136.339ZM428.96 171.946C440.22 168.552 451.314 160.118 459.699 151.93C459.997 151.643 460.37 151.446 460.775 151.361C461.179 151.275 461.6 151.306 461.988 151.449C491.743 162.209 522.433 162.555 545.573 140.59C575.788 111.899 566.243 46.8057 529.787 27.7743C501.294 12.8985 457.336 22.863 437.132 48.0181C418.394 71.35 421.109 116.067 445.632 133.935C445.963 134.175 446.214 134.51 446.349 134.896C446.484 135.282 446.498 135.701 446.387 136.095C443.784 145.341 433.723 163.601 428.96 171.946Z" fill="#191919"/>
<path d="M530.142 69.4896C529.795 66.6027 528.597 63.8843 526.701 61.6795C524.806 59.4747 522.298 57.8829 519.496 57.1064C509.007 53.8455 499.77 59.9446 493.397 69.0731C491.638 67.2763 489.737 65.6255 487.711 64.1371C480.615 59.2011 471.36 59.0468 465.388 66.2966C463.094 69.4156 461.48 72.9817 460.652 76.764C459.824 80.5463 459.8 84.4603 460.581 88.2525C462.476 96.8905 472.274 106.485 479.459 111.927C484 115.316 488.836 118.292 493.909 120.818C494.188 120.966 494.504 121.028 494.818 120.998C495.132 120.968 495.431 120.846 495.676 120.648C503.423 114.253 516.309 103.082 522.346 94.8853C526.767 89.6091 529.521 83.1388 530.259 76.2951C530.45 74.0284 530.411 71.7483 530.142 69.4896Z" fill="#38A1FF"/>
<path d="M126.556 230.335C128.297 229.309 129.958 228.152 131.523 226.874C132.587 225.912 134.839 223.585 133.991 222.222C133.115 220.806 129.438 222.191 128.925 222.416C126.969 223.442 125.152 224.715 123.521 226.205C123.289 226.498 121.67 229.148 122.441 230.178C123.212 231.208 126.26 230.45 126.556 230.335Z" fill="#191919"/>
<path d="M362.679 183.144C363.583 183.394 368.118 183.851 369.049 183.946C371.354 184.187 377.752 184.896 378.159 182.623C378.496 180.75 373.489 179.322 372.915 179.171C369.69 178.467 366.402 178.089 363.102 178.042C362.642 178.088 358.983 178.699 358.869 180.281C358.764 181.759 362.293 183.039 362.679 183.144Z" fill="#191919"/>
<path d="M308.075 226.208C310.444 206.137 307.501 188.355 290.592 177.428C283.765 173.109 276.453 171.566 269.438 168.567C263.268 149.407 252.779 132.883 232.64 132.748C228.932 132.539 225.229 133.225 221.843 134.75C199.276 146.183 188.577 178.313 208.216 196.737C221.482 209.132 245.264 214.296 263.212 212.779C263.567 219.476 266.393 224.918 272.73 226.954C278.283 228.737 285.492 227.402 291.209 226.266C293.3 225.884 295.429 225.751 297.552 225.868C301.815 226.13 309.08 229.879 308.553 237.172C308.256 240.671 306.725 243.951 304.234 246.427C300.467 250.092 293.606 251.156 288.361 251.4C287.83 251.429 287.32 251.62 286.9 251.946C286.479 252.272 286.168 252.719 286.007 253.226C284.982 257.293 283.077 261.086 280.427 264.338C277.777 267.589 274.446 270.22 270.669 272.045C263.061 275.685 251.496 275.438 249.657 274.204C249.084 273.818 248.386 273.665 247.704 273.775C241.003 275.109 234.068 274.638 227.608 272.412C218.816 268.932 214.991 261.176 213.794 251.838C215.497 252.31 217.234 252.646 218.825 253.087C219.222 253.225 219.656 253.205 220.037 253.031C220.419 252.856 220.718 252.541 220.872 252.151C221.027 251.761 221.025 251.327 220.866 250.938C220.708 250.55 220.406 250.238 220.022 250.067C217.61 248.799 214.432 247.411 212.554 246.121C215.359 240.515 218.622 235.15 222.308 230.079C222.802 229.317 223.234 228.537 223.715 227.778C225.424 225.122 226.347 224.446 225.369 223.298C223.758 221.401 219.223 225.785 217.622 227.695C216.57 228.953 214.892 231.344 213.979 232.698C214.568 226.249 215.719 219.864 217.419 213.615C217.485 213.412 217.51 213.197 217.492 212.985C217.474 212.772 217.413 212.565 217.314 212.376C217.215 212.187 217.079 212.019 216.913 211.884C216.748 211.748 216.558 211.647 216.353 211.587C216.148 211.526 215.934 211.507 215.721 211.531C215.509 211.555 215.304 211.621 215.118 211.725C214.931 211.83 214.768 211.971 214.637 212.139C214.506 212.308 214.41 212.501 214.355 212.708C213.701 214.765 212.97 216.777 212.347 218.834C210.343 225.922 209.012 233.182 208.37 240.519C208.121 243.885 208.596 241.842 206.936 245.831C206.719 246.334 206.666 246.893 206.784 247.427C206.902 247.962 207.185 248.446 207.593 248.811C207.818 248.987 208.05 249.157 208.284 249.324C209.715 273.343 225.452 282.546 247.729 279.294C252.918 281.337 265.005 280.778 273.007 276.922C277.18 274.927 280.887 272.079 283.89 268.563C286.894 265.046 289.126 260.938 290.444 256.505C296.773 256.352 302.855 254.013 307.655 249.885C313.958 243.379 315.432 231.742 308.075 226.208ZM245.788 144.767C245.717 144.964 245.608 145.146 245.467 145.301C245.326 145.456 245.155 145.582 244.965 145.672C244.775 145.761 244.569 145.812 244.36 145.822C244.15 145.832 243.941 145.8 243.743 145.729C242.907 145.627 242.148 145.63 241.352 145.575C233.51 145.035 229.472 145.288 222.873 150.647C220.82 152.286 218.885 154.067 217.082 155.978C216.966 156.165 216.813 156.326 216.632 156.452C216.451 156.578 216.247 156.666 216.031 156.71C215.816 156.755 215.593 156.755 215.377 156.711C215.161 156.667 214.957 156.579 214.776 156.454C214.595 156.328 214.441 156.167 214.325 155.981C214.208 155.794 214.13 155.585 214.096 155.368C214.062 155.15 214.073 154.928 214.128 154.715C214.182 154.501 214.28 154.301 214.414 154.127C215.73 151.484 217.424 149.046 219.442 146.892C223.481 142.756 228.928 140.294 234.701 139.994C238.293 139.683 241.88 140.651 244.829 142.728C245.226 142.871 245.551 143.166 245.73 143.549C245.91 143.931 245.931 144.369 245.788 144.767Z" fill="#191919"/>
<path d="M199.122 425.307C201.349 422.53 203.387 419.606 205.221 416.555C207.633 412.705 210.465 407.917 214.621 406.183C219.171 404.271 224.934 406.393 229.472 408.432C232.982 409.996 236.407 411.741 239.736 413.661C240.092 413.883 240.52 413.958 240.93 413.871C241.34 413.784 241.701 413.541 241.936 413.194C242.171 412.847 242.263 412.423 242.192 412.009C242.121 411.596 241.893 411.226 241.556 410.977C238.462 408.402 235.16 406.086 231.684 404.055C225.791 400.741 218.764 398.557 212.529 401.161C207.704 403.178 204.033 407.766 200.689 413.899C199.024 417.067 197.581 420.347 196.37 423.715C196.265 423.898 196.198 424.099 196.171 424.307C196.144 424.516 196.159 424.727 196.214 424.93C196.269 425.133 196.363 425.323 196.491 425.489C196.62 425.656 196.78 425.795 196.962 425.899C197.144 426.004 197.345 426.072 197.554 426.098C197.762 426.125 197.974 426.111 198.177 426.056C198.38 426.001 198.57 425.906 198.736 425.778C198.902 425.649 199.042 425.49 199.146 425.307H199.122Z" fill="#191919"/>
<path d="M331.16 400.458C333.835 397.983 336.31 395.301 338.564 392.437C341.383 388.988 345.058 384.144 349.259 382.691C354.053 381.029 359.008 384.425 362.898 387.661C366.116 390.336 367.726 391.882 372.249 396.136C372.542 396.444 372.943 396.624 373.368 396.639C373.793 396.654 374.206 396.501 374.52 396.214C374.833 395.928 375.021 395.529 375.044 395.105C375.067 394.681 374.923 394.265 374.643 393.946C372.05 390.448 369.236 387.121 366.218 383.984C360.995 378.875 354.42 375.164 347.485 377.539C342.216 379.344 337.644 384.706 334.393 389.244C331.264 393.612 330.66 395.244 328.664 398.44C328.509 398.599 328.39 398.789 328.312 398.996C328.235 399.204 328.201 399.425 328.214 399.647C328.227 399.868 328.286 400.084 328.387 400.281C328.487 400.479 328.628 400.653 328.8 400.793C328.972 400.933 329.171 401.036 329.384 401.095C329.598 401.154 329.822 401.168 330.041 401.135C330.26 401.103 330.471 401.026 330.658 400.908C330.846 400.791 331.007 400.635 331.132 400.452L331.16 400.458Z" fill="#191919"/>
<path d="M267.439 476.324C270.571 478.919 273.94 481.213 277.502 483.176C285.443 487.455 297.718 491.472 306.193 488.238C318.891 483.392 325.597 469.241 331.311 459.4C331.546 459.04 331.629 458.601 331.541 458.18C331.453 457.759 331.202 457.39 330.842 457.154C330.48 456.923 330.043 456.842 329.623 456.929C329.202 457.016 328.833 457.264 328.593 457.62C326.034 461.287 323.4 464.9 320.692 468.457C307.1 486.378 299.933 487.455 279.763 478.552C277.66 477.626 272.393 475.343 269.2 473.659C269.026 473.533 268.827 473.443 268.617 473.396C268.407 473.348 268.189 473.344 267.977 473.383C267.765 473.421 267.563 473.503 267.383 473.622C267.204 473.741 267.05 473.895 266.931 474.074C266.813 474.254 266.731 474.456 266.693 474.668C266.654 474.88 266.659 475.098 266.707 475.308C266.754 475.518 266.844 475.717 266.971 475.891C267.097 476.066 267.257 476.213 267.442 476.324H267.439Z" fill="#191919"/>
<path d="M113.362 515.787C122.042 537.795 137.457 556.495 157.403 569.216C198.125 596.09 269.864 611.357 335.099 594.276C372.289 584.836 405.966 564.869 432.091 536.768C445.206 522.627 456.429 508.966 464.564 491.792C464.665 491.599 464.727 491.387 464.744 491.169C464.762 490.952 464.735 490.733 464.666 490.525C464.598 490.318 464.488 490.127 464.343 489.963C464.199 489.799 464.023 489.666 463.826 489.572C463.629 489.478 463.415 489.424 463.197 489.414C462.979 489.404 462.761 489.439 462.556 489.515C462.352 489.591 462.165 489.708 462.006 489.858C461.847 490.008 461.721 490.188 461.633 490.388C453.702 506.686 441.235 520.93 428.914 533.767C402.951 560.683 370 579.833 333.76 589.065C258.224 608.64 146.383 586.622 116.336 514.584C116.166 514.207 115.856 513.911 115.472 513.757C115.088 513.604 114.66 513.605 114.277 513.761C113.894 513.917 113.586 514.215 113.418 514.593C113.251 514.971 113.236 515.399 113.377 515.787H113.362Z" fill="#191919"/>
<path d="M138.603 542.068C111.341 509.343 108.426 484.82 109.811 443.703C110.301 429.065 110.428 414.528 114.065 400.226C117.207 395.114 121.407 390.733 126.383 387.38C138.723 379.89 153.624 382.034 167.164 379.267C174.92 377.681 181.815 373.35 189.163 370.573C210.012 362.697 240.846 359.813 252.011 384.067C258.233 397.592 251.459 411.215 242.716 421.735C234.988 431.251 225.264 438.954 214.232 444.299C207.275 447.652 199.168 449.333 193.038 454.254C186.707 459.335 187.945 467.06 184.125 473.415C179.692 480.785 172.171 485.647 168.679 493.622C163.616 505.178 165.504 522.368 176.866 529.876C181.802 533.137 187.392 533.794 192.989 535.226C197.209 530.907 201.997 525.9 207.797 523.771C214.778 521.217 222.456 522.408 229.654 521.016C235.127 519.961 240.865 516.528 246.501 516.892C252.764 517.293 257.811 521.359 264.335 521.211C273.671 521.004 284.511 514.627 293.572 518.952C298.116 521.112 301.975 524.53 306.529 526.628C311.23 528.787 316.666 529.713 320.529 533.39C324.667 537.486 327.33 542.838 328.101 548.61C328.872 554.381 327.707 560.245 324.789 565.283C317.971 576.411 305.495 577.839 294.007 580.557C289.089 581.72 284.502 583.787 279.458 584.484C269.549 585.854 259.378 585.533 249.567 587.615C245.869 588.529 242.257 589.761 238.77 591.296C202.746 587.035 161.926 570.065 138.603 542.068ZM205.652 401.022C202.176 404.489 199.122 408.354 196.555 412.538C195.562 414.946 194.737 417.42 194.087 419.942C193.242 423.543 191.418 433.985 198.986 429.839C206.183 425.89 209.296 412.15 218.017 409.722C224.15 408.013 230.953 415.583 236.564 417.329C237.962 418.006 239.532 418.244 241.067 418.011C242.602 417.778 244.031 417.085 245.165 416.025C250.749 409.512 244.11 401.01 238.134 397.937C228.099 392.794 213.797 392.103 205.652 401.022Z" fill="#38A1FF"/>
<path d="M370.318 384.218C380.877 380.966 394.473 378.424 401.461 383.789C407.146 388.158 405.113 397.98 404.66 403.996C403.614 417.829 410.595 432.153 394.325 441.016C382.87 447.257 373.523 435.155 363.867 431.169C355.099 427.544 344.508 429.561 336.558 423.802C323.024 413.998 348.019 393.859 355.738 389.685C355.738 389.685 356.855 389.166 358.752 388.392C361.646 391.668 364.729 394.771 367.985 397.687C369.351 399.178 371.085 400.283 373.014 400.889C376.944 401.389 378.841 396.805 377.641 393.701C375.966 390.017 373.459 386.771 370.318 384.218Z" fill="#38A1FF"/>
</svg>
