<svg width="566" height="567" viewBox="0 0 566 567" fill="none" xmlns="http://www.w3.org/2000/svg">
<path d="M400.957 157.966C398.976 158.533 335.078 204.259 329.791 208.276C324.505 212.293 314.102 226.482 315.454 227.778C317.549 229.785 335.457 223.29 337.854 221.898C340.251 220.506 407.03 173.269 410.302 171.004C413.573 168.739 402.952 157.402 400.957 157.966Z" fill="#38A1FF"/>
<path d="M283.105 304.459C254.788 306.086 228.851 283.48 188.393 270.796C171.413 273.759 139.245 272.12 134.623 261.619C74.1404 270.595 23.1212 308.964 15.1972 334.762C7.60427 359.447 42.7048 408.231 59.5518 424.167C66.989 381.798 77.3298 336.682 93.758 296.875C94.59 294.857 96.4493 296.093 95.8182 298.043C77.8196 353.572 65.0691 410.673 57.7349 468.591C89.7139 487.532 191.594 491.955 224.603 483.852C224.872 469.873 226.842 422.948 228.658 386.64C214.477 385.506 200.33 383.85 186.296 381.537C184.055 381.168 185.042 378.796 187.239 379.09C213.631 382.64 267.045 388.857 297.892 380.392C316.853 375.187 355.776 355.16 386.754 260.755C377.794 254.022 362.56 248.21 347.552 246.58C343.455 258.41 297.037 303.657 283.105 304.459Z" fill="#38A1FF"/>
<path d="M267.873 104.759C283.293 115.574 297.122 128.503 308.957 143.167C310.833 145.399 312.919 143.644 314.334 141.821C333.142 117.474 343.2 103.185 368.341 82.2858C370.322 80.6472 368.081 78.2488 365.967 79.7343C348.735 91.7944 322.241 117.21 310.929 135.161C298.845 122.046 285.04 110.632 269.894 101.232C266.993 99.4574 265.058 102.882 267.873 104.759Z" fill="#408CFF"/>
<path d="M284.808 102.088C289.69 102.655 325.127 101.156 330.654 101.056C333.411 101.005 333.615 96.594 330.813 96.7018C325.235 96.9144 289.495 97.7422 284.486 98.6324C282.434 98.9953 282.972 101.87 284.808 102.088Z" fill="#408CFF"/>
<path d="M273.115 210.051C270.656 208.939 268.635 212.293 270.876 213.685C283.415 221.514 295.392 230.212 306.718 239.716C310.137 242.577 314.342 237.128 310.963 234.242C299.542 224.441 286.801 216.297 273.115 210.051Z" fill="#408CFF"/>
<path d="M345.988 152.872C346.109 142.3 345.079 130.968 345.023 120.332C345.023 117.638 341.281 118.089 341.304 120.779C341.396 132.046 341.491 143.304 341.587 154.553C333.142 154.553 295.039 155.588 286.345 157.223C285.428 147.553 284.99 137.806 283.569 128.187C283.497 127.806 283.287 127.466 282.979 127.23C282.671 126.995 282.288 126.882 281.902 126.912C281.516 126.943 281.155 127.115 280.889 127.396C280.622 127.677 280.468 128.046 280.456 128.434C280.906 137.88 281.305 147.531 282.027 156.977C282.412 162.003 282.429 161.669 287.378 161.309C304.517 160.058 321.966 159.041 339.147 158.885C344.106 158.837 345.914 159.177 345.988 152.872Z" fill="#408CFF"/>
<path d="M324.683 191.493C315.205 191.615 304.873 191.762 295.449 192.837C285.615 193.971 286.308 194.798 287.004 203.678C287.165 206.012 287.463 208.335 287.899 210.635C287.95 211.066 288.158 211.462 288.482 211.75C288.806 212.038 289.224 212.197 289.657 212.197C290.091 212.197 290.509 212.038 290.833 211.75C291.157 211.462 291.364 211.066 291.416 210.635C291.416 209.019 290.632 198.045 290.85 197.775C291.068 197.506 320.826 195.414 324.004 195.195C326.743 195.005 327.414 191.456 324.683 191.493Z" fill="#408CFF"/>
<path d="M292.961 234.914C292.866 234.484 292.617 234.103 292.262 233.843C291.908 233.583 291.47 233.461 291.032 233.499C290.594 233.537 290.185 233.734 289.881 234.052C289.577 234.37 289.398 234.788 289.379 235.228C289.504 241.105 289.93 246.972 290.655 252.805C290.614 253.357 290.792 253.903 291.152 254.323C291.512 254.743 292.023 255.002 292.574 255.045C292.857 255.068 314.537 254.509 330.394 253.007C334.449 252.624 331.984 248.987 329.61 249.171C318.409 250.022 305.866 250.472 294.62 250.807C294.173 245.349 293.791 240.144 292.961 234.914Z" fill="#408CFF"/>
<path d="M196.727 183.322C191.262 182.988 188.014 189.741 190.948 190.348C192.471 190.662 192.963 186.846 196.481 186.869C196.95 186.902 197.414 186.746 197.769 186.437C198.124 186.127 198.342 185.689 198.374 185.219C198.407 184.749 198.252 184.285 197.943 183.929C197.634 183.573 197.197 183.355 196.727 183.322Z" fill="#191919"/>
<path d="M204.366 177.264C203.55 175.62 202.102 176.958 202.484 178.52C204.886 188.133 207.612 193.489 209.652 204.171C210.75 209.915 205.512 206.414 205.35 210.904C205.247 214.231 204.911 217.547 204.343 220.827C202.071 220.427 199.993 219.292 198.428 217.595C197.421 216.271 195.675 217.462 196.504 219.233C197.248 220.611 198.312 221.79 199.606 222.669C200.901 223.547 202.388 224.101 203.941 224.283C202.127 238.741 194.5 239.569 182.3 237.04C180.059 236.578 177.814 235.778 175.355 235.447C174.167 235.288 171.11 237.692 179.096 239.935C179.096 243.819 179.945 263.635 181.046 267.27C181.513 268.795 183.916 268.613 183.78 266.887C183.073 257.908 182.792 249.517 182.648 240.743C206.986 245.726 206.596 230.803 208.543 211.684C213.56 210.964 213.787 206.805 213.023 202.819C211.311 193.946 208.398 185.348 204.366 177.264Z" fill="#191919"/>
<path d="M135.484 136.131C128.975 112.544 103.762 88.1287 69.8277 105.859C35.8932 123.589 40.3957 171.299 58.6492 191.493C70.1164 204.174 81.0515 219.14 79.3704 230.763C77.6894 242.387 95.5496 232.288 86.2473 194.206C78.8129 163.775 103.092 138.464 122.086 150.38C125.569 144.791 130.123 139.948 135.484 136.131Z" fill="#191919"/>
<path d="M169.353 192.278C174.421 195.292 205.925 169.831 203.986 163.979C188.421 117.04 130.536 129.213 121.257 162.788C110.845 200.463 141.842 230.012 143.815 229.754C146.682 229.377 155.701 223.582 159.049 212.293C160.523 213.158 162.201 213.613 163.909 213.613C165.618 213.613 167.295 213.158 168.77 212.293C170.694 211.196 169.305 209.007 167.27 209.742C162.312 211.514 156.966 207.496 157.504 198.926C157.516 197.545 157.892 196.192 158.594 195.003C159.297 193.815 160.3 192.834 161.503 192.159C162.706 191.484 164.065 191.14 165.444 191.161C166.822 191.181 168.171 191.567 169.353 192.278Z" fill="#191919"/>
<path d="M142.225 234.128C140.387 242.622 139.404 251.279 139.29 259.969C139.325 260.329 139.487 260.665 139.746 260.917C140.006 261.169 140.346 261.32 140.706 261.344C141.066 261.369 141.424 261.264 141.714 261.049C142.005 260.834 142.209 260.523 142.292 260.171C144.007 251.901 144.273 242.982 145.787 234.386C146.147 232.334 142.609 232.132 142.225 234.128Z" fill="#191919"/>
<path d="M200.081 194.764C198.791 190.268 194.54 190.073 196.207 196.403C197.724 202.135 201.442 199.493 200.081 194.764Z" fill="#191919"/>
<path d="M338.437 194.161C339.787 192.8 349.757 192.023 350.513 191.782C352.231 191.215 351.834 188.683 350.4 188.125C347.51 186.991 339.334 188.618 336.6 190.109C333.867 191.601 333.408 196.599 330.977 201.846C329.729 204.54 328.057 207.017 326.967 209.767C326.438 211.108 328.054 212.035 329.208 211.114C334.718 206.765 338.369 194.229 338.437 194.161Z" fill="#191919"/>
<path d="M331.738 217.657C331.361 217.638 330.99 217.754 330.691 217.984C330.392 218.213 330.183 218.542 330.103 218.911C330.022 219.28 330.075 219.665 330.252 219.999C330.428 220.332 330.717 220.593 331.067 220.733C350.563 227.889 349.366 240.91 352.08 244.003C352.666 244.672 356.5 246.101 355.552 240.601C353.639 229.504 343.049 218.55 331.738 217.657Z" fill="#191919"/>
<path d="M371.658 204.551C379.237 223.058 379.611 227.625 379.118 247.643C379.062 249.888 382.421 250.79 383.015 248.493C386.459 235.203 382.426 213.906 374.48 202.691C373.308 201.035 370.959 202.847 371.658 204.551Z" fill="#191919"/>
<path d="M359.248 210.453C358.804 215.483 355.634 215.443 352.527 216.379C348.644 217.547 350.846 218.621 352.527 219.026C353.82 219.392 355.184 219.425 356.493 219.124C357.803 218.823 359.015 218.196 360.019 217.302C361.023 216.408 361.787 215.275 362.239 214.008C362.691 212.741 362.818 211.38 362.608 210.051C362.138 207.834 359.438 208.302 359.248 210.453Z" fill="#191919"/>
<path d="M498.292 140.483C502.594 140.245 501.337 133.645 497.081 133.886C466.327 135.632 435.047 133.772 405.236 135.638C401.84 135.848 402.437 140.999 405.519 141.359C423.294 143.434 480.933 141.467 498.292 140.483Z" fill="#191919"/>
<path d="M548.29 99.327C511.647 98.1136 434.383 98.4765 400.332 102.066C397.553 102.349 396.792 107.472 400.131 107.452C439.109 107.208 503.367 104.592 548.918 106.035C553.265 106.176 552.549 99.4687 548.29 99.327Z" fill="#191919"/>
<path d="M543.745 193.219C499.365 196.905 446.175 192.315 405.731 197.214C402.528 197.602 403.331 203.065 406.626 202.884C442.734 200.721 496.229 202.274 543.923 200.012C548.225 199.794 548.111 192.856 543.745 193.219Z" fill="#191919"/>
<path d="M492.647 224.727C471.9 223.486 425.983 223.622 408.596 224.478C405.347 224.64 404.877 230.128 408.259 230.335C434.156 231.928 462.425 231.846 492.262 231.234C495.782 231.163 496.521 224.957 492.647 224.727Z" fill="#191919"/>
</svg>
