<svg width="22" height="18" viewBox="0 0 22 18" fill="none" xmlns="http://www.w3.org/2000/svg">
<path d="M2.33333 17.6668C1.7375 17.6668 1.22761 17.4549 0.803668 17.0309C0.379724 16.607 0.16739 16.0967 0.166668 15.5002V2.50016C0.166668 1.90433 0.379001 1.39444 0.803668 0.970496C1.22833 0.546551 1.73822 0.334218 2.33333 0.333496H19.6667C20.2625 0.333496 20.7727 0.545829 21.1974 0.970496C21.6221 1.39516 21.8341 1.90505 21.8333 2.50016V15.5002C21.8333 16.096 21.6214 16.6062 21.1974 17.0309C20.7735 17.4556 20.2632 17.6676 19.6667 17.6668H2.33333ZM11 10.0835L19.6667 4.66683V2.50016L11 7.91683L2.33333 2.50016V4.66683L11 10.0835Z" fill="#1370FC"/>
</svg>
