<svg width="20" height="20" viewBox="0 0 20 20" fill="none" xmlns="http://www.w3.org/2000/svg">
<path d="M4.17167 8.68917C5.73167 11.755 8.245 14.2575 11.3108 15.8283L13.6942 13.445C13.9867 13.1525 14.42 13.055 14.7992 13.185C16.0125 13.5858 17.3233 13.8025 18.6667 13.8025C19.2625 13.8025 19.75 14.29 19.75 14.8858V18.6667C19.75 19.2625 19.2625 19.75 18.6667 19.75C8.49417 19.75 0.25 11.5058 0.25 1.33333C0.25 0.7375 0.7375 0.25 1.33333 0.25H5.125C5.72083 0.25 6.20833 0.7375 6.20833 1.33333C6.20833 2.6875 6.425 3.9875 6.82583 5.20083C6.945 5.58 6.85833 6.0025 6.555 6.30583L4.17167 8.68917Z" fill="#1370FC"/>
</svg>
