<svg width="616" height="617" viewBox="0 0 616 617" fill="none" xmlns="http://www.w3.org/2000/svg">
<path d="M351.318 144.668C340.707 129.098 319.945 131.251 303.513 131.365C265.223 131.621 106.35 131.424 95.1943 131.982C78.011 132.868 60.7568 139.84 57.9664 156.971C56.4602 166.226 57.7939 176.119 58.1388 185.445C59.5248 223.2 60.5597 269.903 65.2013 303.545C66.461 312.695 68.115 321.867 73.7976 329.428C82.7665 341.367 100.541 345.563 115.455 345.813C115.63 346.106 252.093 349.324 301.422 345.622C315.772 344.542 333.248 343.462 342.922 331.159C347.77 324.989 348.182 316.095 349.153 308.605C352.642 281.728 354.971 236.246 358.02 187.472C358.892 173.543 359.569 156.77 351.318 144.668ZM355.091 178.603C354.989 184.181 350.84 250.135 350.569 254.136C349.645 267.667 346.673 310.234 342.832 323.527C339.035 336.647 321.972 339.877 310.379 341.111C300.556 342.176 290.667 342.787 280.789 343.107C230.092 344.749 119.973 344.403 115.562 344.286C97.6984 343.462 77.6568 338.218 70.9239 319.655C68.4335 311.217 67.0593 302.488 66.8368 293.692C63.4765 253.207 63.9939 240.988 61.419 178.671C61.0556 169.749 59.2384 159.26 63.3225 150.921C72.2791 132.689 99.3308 135.246 115.904 135.064C135.398 134.851 300.834 134.728 311.075 134.645C320.179 134.571 330.007 134.108 338.487 138.066C353.782 145.195 355.356 163.724 355.091 178.59V178.603Z" fill="#191919"/>
<path d="M207.966 358.014C210.353 363.413 219.291 360.683 216.171 353.473C215.909 352.855 215.513 352.302 215.012 351.855C214.511 351.408 213.917 351.078 213.274 350.889C212.63 350.699 211.952 350.655 211.29 350.76C210.627 350.864 209.995 351.114 209.441 351.493C207.541 352.797 205.877 356.302 208.024 358.165C208.11 358.252 208.22 358.312 208.34 358.336C208.46 358.36 208.585 358.348 208.698 358.301C208.811 358.254 208.907 358.174 208.975 358.072C209.042 357.97 209.078 357.85 209.078 357.727C209.21 356.302 208.93 354.784 210.116 353.717C210.415 353.415 210.778 353.184 211.178 353.042C211.578 352.899 212.005 352.848 212.427 352.893C212.849 352.938 213.256 353.078 213.617 353.302C213.978 353.525 214.285 353.827 214.514 354.186C214.999 354.866 215.21 355.705 215.102 356.535C214.995 357.364 214.578 358.122 213.935 358.656C213.103 359.121 212.126 359.253 211.201 359.024C210.276 358.795 209.473 358.222 208.954 357.422C208.566 356.78 207.67 357.348 207.966 358.014Z" fill="#191919"/>
<path d="M195.796 391.246C200.6 392.065 205.473 392.397 210.343 392.236C215.662 392.393 221.006 392.575 226.322 392.545C226.673 392.528 227.004 392.376 227.247 392.122C227.49 391.867 227.625 391.528 227.625 391.176C227.625 390.824 227.49 390.486 227.247 390.231C227.004 389.976 226.673 389.825 226.322 389.808C221.006 389.592 215.662 389.577 210.343 389.552C205.49 389.219 200.616 389.381 195.796 390.036C195.667 390.076 195.554 390.156 195.474 390.265C195.393 390.374 195.35 390.506 195.35 390.641C195.35 390.776 195.393 390.908 195.474 391.017C195.554 391.126 195.667 391.206 195.796 391.246Z" fill="#191919"/>
<path d="M374.898 131.813C371.39 124.005 364.963 117.888 357.001 114.774C346.858 110.791 335.561 111.421 324.876 111.519C279.366 111.939 92.5333 111.8 79.6743 112.334C69.6351 112.465 59.801 115.198 51.1289 120.265C31.7249 132.541 36.1539 153.016 36.9301 175.977C38.4208 220.124 39.5573 274.92 44.4976 314.155C45.7974 324.486 47.2296 334.951 52.7705 344.005C62.6635 360.161 82.6958 366.26 101.542 366.183C102.269 366.183 144.166 367.189 192.214 367.547C192.288 370.086 192.79 372.89 193.074 375.568C192.027 375.441 163.814 376.148 155.522 377.329C155.35 377.364 155.188 377.436 155.047 377.541C154.906 377.646 154.789 377.781 154.706 377.936C154.623 378.091 154.576 378.262 154.567 378.438C154.558 378.614 154.587 378.789 154.654 378.952C150.403 382.549 146.646 387.01 142.771 390.943C138.003 395.759 132.974 400.433 128.52 405.538C128.336 405.731 128.234 405.989 128.237 406.256C128.239 406.523 128.347 406.778 128.535 406.967C128.724 407.156 128.979 407.263 129.245 407.266C129.512 407.269 129.769 407.167 129.961 406.982C134.951 402.395 139.485 397.243 144.179 392.353C148.084 388.278 152.559 384.332 156.08 379.877C168.444 378.771 180.859 378.321 193.271 378.529C193.296 380.556 193.188 382.956 195.196 383.984C195.504 384.147 196.043 384.033 196.101 383.61C196.249 380.932 196.139 378.246 195.772 375.589C195.712 372.852 195.207 370.143 194.278 367.568C205.477 367.648 216.981 367.689 228.349 367.67C226.888 372.285 226.675 377.205 227.733 381.929C227.779 382.077 227.87 382.206 227.995 382.298C228.119 382.39 228.27 382.44 228.424 382.44C228.579 382.44 228.73 382.39 228.854 382.298C228.978 382.206 229.07 382.077 229.116 381.929C229.515 380.587 229.754 379.203 229.827 377.804C236.129 378.647 241.35 378.057 258.327 379.119C260.905 379.282 264.582 379.319 266.754 379.307C269.949 383.716 273.711 387.684 277.943 391.107C282.085 395.185 286.45 399.028 291.018 402.62C292.12 403.453 293.482 401.63 292.49 400.707C288.095 396.681 283.475 392.915 279.089 388.864C275.745 385.28 272.178 381.913 268.407 378.782C268.467 378.6 268.464 378.402 268.397 378.222C268.331 378.041 268.205 377.889 268.041 377.789C265.442 376.811 262.671 376.374 259.897 376.506C256.226 376.273 252.552 376.094 248.874 375.969C242.597 375.345 236.287 375.124 229.981 375.309C230.154 372.575 230.628 370.049 230.65 367.667C263.091 367.596 294.196 367.031 313.714 365.48C330.279 364.159 350.548 363.194 361.892 349.129C367.762 341.858 368.313 331.798 369.465 322.857C374.335 285.115 376.374 226.803 379.454 183.607C380.689 166.658 382.143 147.694 374.898 131.813ZM376.897 170.684C376.716 175.897 372.142 251.288 371.661 258.81C370.62 274.645 367.208 324.054 362.902 339.538C358.744 354.497 340.359 358.875 327.023 360.497C315.596 361.892 304.031 362.626 292.527 363.015C234.035 365.002 103.985 364.277 101.662 364.19C80.4474 363.265 57.8802 356.385 50.6022 334.185C47.3836 324.372 46.9955 313.646 46.1824 303.403C42.9669 262.765 43.1825 249.777 40.3304 170.526C39.9423 160.022 38.082 148.354 41.0696 138.106C48.092 114.068 79.7143 115.641 99.2261 115.385C122.301 115.076 319.588 114.842 331.369 114.768C341.983 114.712 353.415 114.984 362.406 121.407C377.301 132.038 377.473 154.216 376.897 170.674V170.684Z" fill="#191919"/>
<path d="M18.0218 490.009C19.8852 487.365 63.458 438.181 65.6233 435.735C66.9863 434.115 68.7194 432.848 70.6755 432.043C72.6315 431.237 74.7527 430.916 76.8591 431.107C106.538 430.934 136.226 430.746 165.905 431.224C221.283 432.131 343.104 429.022 347.188 429.065C351.192 429.105 356.357 428.183 359.412 431.126C362.326 433.936 392.467 474.994 403.003 485.992C404.642 487.698 407.226 485.104 405.597 483.395C395.282 472.619 369.53 437.894 365.323 432.643C363.812 430.193 361.821 428.076 359.471 426.418C354.213 423.793 293.223 426.995 267.151 427.587C236.289 428.294 244.226 427.744 80.1301 427.701C72.8705 427.701 67.7331 428.01 62.9498 433.961C57.4489 440.813 18.3514 486.233 16.5989 489.167C16.0537 490.098 17.4212 490.86 18.0218 490.009Z" fill="#191919"/>
<path d="M400.296 501.686C402.988 497.102 408.56 489.599 405.887 488.729C401.753 487.409 18.7707 490.944 18.7707 490.944C18.7707 490.944 11.4033 491.135 18.4627 497.715C25.5221 504.296 25.8547 505.977 38.5997 505.484C51.3448 504.99 364.029 503.99 372.746 504.129C381.462 504.268 398.59 504.589 400.296 501.686Z" fill="#191919"/>
<path d="M58.6993 458.971C55.9889 462.334 43.9553 474.723 43.4687 477.789C43.4032 478.061 43.4244 478.347 43.5293 478.606C43.6343 478.865 43.8178 479.084 44.0539 479.233C45.6986 480.288 95.6316 479.233 106.76 479.193C130.266 479.094 296.934 480.119 301.151 480.174C304.375 480.214 306.658 479.529 305.078 475.911C299.691 463.571 294.341 451.231 288.868 438.928C287.476 435.809 286.364 435.389 283.016 435.405C283.016 435.405 83.0713 435.405 76.7481 435.331C76.4557 435.346 76.1803 435.473 75.9787 435.686C75.7771 435.898 75.6647 436.18 75.6647 436.474C75.6647 436.767 75.7771 437.049 75.9787 437.262C76.1803 437.474 76.4557 437.601 76.7481 437.617C116.274 438.002 273.803 437.509 284.894 438.169C285.791 438.224 284.586 436.136 302.192 475.895C302.438 476.447 302.373 477.438 299.457 477.509C297.433 477.552 104.049 476.734 59.7557 477.064C57.4026 477.064 47.4173 477.484 47.4912 476.892C47.7376 474.905 63.1283 458.524 76.2615 438.366C76.7142 437.672 75.6455 437.104 75.1773 437.731C75.1527 437.721 64.7145 451.505 58.6993 458.971Z" fill="#191919"/>
<path d="M310.443 470.715C311.454 473.687 312.751 476.553 314.315 479.273C315.239 480.541 315.855 480.526 317.395 480.575C325.982 480.843 349.87 479.751 373.758 480.22C375.339 480.254 381.853 481.25 381.766 478.678C381.64 474.902 370.189 461.562 354.401 436.885C352.599 434.065 351.823 433.893 348.259 434.05C342.432 434.297 308.108 435.534 296.78 435.901C295.274 435.95 295.265 438.301 296.78 438.252C355.242 436.401 350.742 436.259 351.099 436.487C352.251 437.221 353.406 440.06 354.145 441.195C355.793 443.703 375.847 473.609 377.667 476.225C378.754 477.783 377.692 477.694 375.511 477.65C373.047 477.595 319.538 477.94 317.798 477.925C315.642 477.897 314.589 473.686 313.708 471.804C302.416 447.63 300.618 443.907 297.532 438.863C297.045 438.07 295.785 438.31 296.13 439.119C301.533 451.786 305.536 459.6 310.443 470.715Z" fill="#191919"/>
<path d="M175.216 200.216C174.206 187.04 179.836 173.5 185.38 167.824C191.102 162.471 198.573 159.386 206.399 159.145C214.225 158.903 221.872 161.522 227.912 166.513C235.973 173.565 241.199 183.312 242.616 193.939C243.216 196.462 245.388 202.839 236.764 203.422C236.148 203.465 234.383 201.907 234.136 201.429C231.672 196.644 231.263 191.128 229.181 186.18C226.719 179.864 222.012 174.684 215.967 171.634C212.939 170.175 209.571 169.569 206.224 169.881C202.878 170.194 199.68 171.413 196.973 173.408C192.018 177.864 188.793 183.93 187.869 190.536C185.053 208.527 192.076 221.275 193.862 222.043C194.875 222.392 195.95 222.522 197.016 222.422C205.486 222.216 239.166 220.88 247.183 221.043C248.033 221.062 249.927 221.352 250.46 222.833C252.379 228.151 251.292 241.065 251.187 242.385C250.778 247.476 247.664 244.178 242.458 247.457C225.056 245.298 218.967 244.431 215.662 245.387C214.98 245.551 214.338 245.853 213.777 246.275C213.215 246.696 212.744 247.227 212.395 247.837C211.943 249.144 212.017 250.577 212.601 251.831C213.185 253.085 214.233 254.062 215.524 254.556C218.049 255.679 221.089 256.033 223.122 257.129C222.95 260.522 223.353 261.812 223.187 265.217C223.082 266.075 223.166 266.944 223.433 267.766C223.732 268.362 224.176 268.872 224.725 269.25C225.274 269.627 225.909 269.86 226.572 269.925C227.899 270.038 229.235 269.924 230.523 269.586C230.489 265.339 231.197 261.119 232.615 257.116C235.174 257.545 238.039 258.585 240.598 259.013C240.906 259.081 238.353 267.55 238.83 270.971C239.003 272.183 241.035 271.853 241.233 272.1C244.223 275.901 245.366 276.678 247.433 277.181C249.755 277.749 250.109 278.804 250.543 281.593C253.623 301.25 233.77 319.004 213.334 319.359C201.883 319.566 182.057 319.359 167.707 298.628C164.439 294.122 162.613 288.728 162.471 283.16C162.839 281.825 163.45 280.57 164.273 279.458C169.222 274.719 173.1 270.61 172.432 261.944C171.88 254.753 168.942 248.247 162.092 246.96C161.501 246.856 160.149 244.816 160.059 244.215C159.07 237.855 158.923 231.393 159.622 224.995C159.892 224.498 160.31 224.097 160.817 223.848C164.676 223.024 174.434 223.592 178.268 222.867C178.636 222.482 178.918 222.024 179.095 221.523C179.272 221.021 179.341 220.488 179.297 219.957C177.027 213.599 175.653 206.955 175.216 200.216Z" fill="#38A1FF"/>
<path d="M290.538 217.835C290.186 223.629 286.66 293.575 288.092 299.254C288.141 299.414 288.239 299.554 288.374 299.654C288.508 299.753 288.67 299.807 288.837 299.807C289.004 299.807 289.167 299.753 289.301 299.654C289.435 299.554 289.534 299.414 289.583 299.254C291.234 293.865 291.283 224.662 291.197 217.835C291.197 217.747 291.162 217.663 291.1 217.602C291.038 217.54 290.954 217.505 290.867 217.505C290.78 217.505 290.696 217.54 290.634 217.602C290.572 217.663 290.538 217.747 290.538 217.835Z" fill="#191919"/>
<path d="M444.192 244.279C435.59 241.676 426.323 242.427 418.249 246.38C407.777 251.504 400.943 262.216 396.85 273.59C395.469 271.24 393.33 269.431 390.785 268.463C386.202 266.757 377.045 268.463 376.793 274.568C376.793 274.751 376.847 274.93 376.949 275.083C377.051 275.235 377.196 275.353 377.365 275.423C377.534 275.493 377.72 275.511 377.9 275.474C378.079 275.438 378.244 275.349 378.373 275.219C381.591 272.637 385.081 269.999 389.461 271.631C390.808 272.126 392 272.97 392.915 274.076C393.831 275.183 394.437 276.513 394.672 277.931C394.826 279.705 394.433 281.485 393.547 283.029C392.66 284.574 391.322 285.809 389.713 286.569C387.478 287.328 385.055 287.321 382.825 286.549C380.594 285.777 378.683 284.284 377.393 282.305C377.242 282.123 376.87 282.148 376.897 282.428C377.547 289.354 387.255 292.3 392.953 288.509C390.052 305.43 393.683 325.375 408.997 333.183C412.807 335.166 416.978 336.359 421.259 336.69C425.54 337.022 429.844 336.485 433.913 335.113C437.982 333.74 441.734 331.56 444.942 328.702C448.151 325.844 450.752 322.367 452.588 318.48C453.568 316.475 450.596 314.704 449.576 316.715C446.593 323.093 441.35 328.133 434.866 330.857C428.382 333.582 421.119 333.796 414.486 331.458C399.181 326.522 394.407 309.046 395.602 294.559C396.514 285.271 399.105 276.226 403.25 267.867C406.081 261.11 410.805 255.319 416.851 251.193C424.139 246.787 432.834 245.341 441.152 247.151C454.563 250.045 462.426 265.803 461.2 278.436C461.132 279.097 462.087 279.128 462.287 278.578C467.064 265.461 456.959 248.682 444.192 244.279Z" fill="#191919"/>
<path d="M440.749 308.629C436.095 312.227 431.562 316.283 425.395 316.65C414.504 317.314 403.912 304.122 411.341 284.366C415.003 274.636 422.999 261.105 434.712 260.735C437.208 260.639 439.681 261.238 441.856 262.467C444.032 263.696 445.823 265.506 447.032 267.695C448.548 270.687 447.741 273.846 448.828 276.82C449.136 277.678 450.54 278.125 451.002 277.11C453.95 270.613 449.404 262.611 443.675 259.405C435.051 254.583 425.235 258.48 419.06 265.353C407.75 277.958 397.284 304.964 415.339 316.78C424.354 322.685 435.501 317.449 441.593 309.746C442.061 309.182 441.445 308.09 440.749 308.629Z" fill="#191919"/>
<path d="M218.108 246.38C222.501 245.827 226.956 246.05 231.272 247.041C251.56 249.546 271.765 254.775 284.765 253.886C285.243 253.852 285.434 253.1 284.882 252.995C275.873 251.273 266.606 250.992 257.55 249.431C248.88 247.941 240.244 246.226 231.527 245.063C227.08 244.041 222.507 243.673 217.954 243.971C217.063 242.708 215.85 241.707 214.441 241.074C213.033 240.441 211.48 240.198 209.946 240.371C199.588 240.436 197.367 251.683 201.26 258.329C202.491 260.429 204.051 262.318 205.88 263.922C206.255 264.243 206.522 264.671 206.645 265.149C206.768 265.627 206.742 266.131 206.57 266.593C205.403 269.725 202.785 276.66 200.644 281.475C200.556 281.675 200.517 281.893 200.533 282.111C200.549 282.329 200.618 282.539 200.734 282.724C200.85 282.908 201.011 283.062 201.2 283.169C201.39 283.277 201.603 283.336 201.821 283.342C207.87 283.505 214.178 283.743 220.212 283.613C220.423 283.608 220.63 283.552 220.815 283.449C221 283.347 221.158 283.201 221.275 283.025C221.393 282.848 221.466 282.646 221.489 282.436C221.511 282.225 221.483 282.012 221.407 281.815C219.346 276.487 218.188 271.514 216.078 266.368C215.881 265.899 215.84 265.378 215.962 264.884C216.084 264.39 216.363 263.948 216.756 263.626C217.717 262.788 218.477 261.744 218.978 260.572C219.48 259.399 219.711 258.128 219.654 256.854C224.582 258.736 219.118 265.93 220.994 269.398C222.072 271.4 227.357 272.223 229.35 271.739C232.92 270.869 231.943 261.738 233.104 259.797C233.822 258.585 238.876 260.161 239.058 260.482C238.975 261.456 238.778 262.416 238.473 263.345C237.971 266.121 235.701 271.11 239.181 272.365C240.505 272.579 241.844 272.692 243.185 272.702C244.215 273.023 245.273 273.242 246.345 273.356C249.798 273.09 248.982 267.769 249.549 265.066C250.346 261.207 252.339 262.222 255.468 262.808C264.851 264.906 274.333 266.529 283.878 267.673C285.178 267.781 285.501 265.563 284.186 265.365C276.486 264.199 268.888 263.07 261.283 261.389C257.673 260.205 253.938 259.444 250.152 259.121C247.864 259.22 247.756 260.886 247.38 262.891C247.33 265.185 246.961 267.46 246.284 269.651C245.329 271.079 243.946 270.268 242.409 270.132C238.729 269.802 240.078 267.994 240.161 267.491C240.496 265.47 242.508 260.269 240.663 258.569C238.235 257.49 235.618 256.898 232.963 256.829C231.66 257.027 231.454 257.671 231.078 258.801C230.641 260.481 230.297 262.185 230.046 263.903C229.824 264.952 230.295 270.03 226.211 268.839C223.914 267.932 223.624 267.605 223.353 265.106C223.082 262.607 224.49 259.917 224.194 257.462C223.972 255.58 223.412 255.407 221.527 254.963C219.503 254.485 217.128 254.698 215.434 253.272C212.04 250.422 215.028 247.173 218.108 246.38Z" fill="#191919"/>
<path d="M368.88 248.987V249.539C368.88 249.589 368.964 249.589 368.964 249.539C368.964 249.357 368.964 249.169 368.988 248.987C368.985 248.929 368.88 248.922 368.88 248.987Z" fill="#191919"/>
<path d="M128.372 408.004C128.372 408.004 291.181 405.9 292.761 406.245C294.341 406.591 292.373 417.138 287.525 417.107C282.677 417.077 137.237 418.252 134.883 417.32C132.53 416.389 125.862 408.037 128.372 408.004Z" fill="#191919"/>
<path d="M467.677 262.305C473.181 262.37 511.912 257.952 517.345 258.505C522.911 259.072 594.114 273.479 599.649 273.239C600.068 273.239 600.333 272.572 599.886 272.365C594.736 270.018 524.623 256.323 518.047 255.734C512.374 255.238 477.459 257.918 467.621 261.802C467.563 261.818 467.512 261.855 467.477 261.905C467.443 261.956 467.428 262.017 467.435 262.078C467.441 262.138 467.469 262.195 467.514 262.236C467.558 262.278 467.616 262.303 467.677 262.305Z" fill="#191919"/>
<path d="M443.558 288.528C485.754 290.437 504.85 269.863 534.603 275.879C535.918 276.141 537.772 276.126 538.053 274.815C538.361 273.42 536.448 272.859 535.056 272.556C523.941 269.727 512.222 270.457 501.542 274.642C482.981 281.931 463.438 286.402 443.558 287.907C443.476 287.907 443.397 287.94 443.339 287.998C443.281 288.056 443.249 288.135 443.249 288.217C443.249 288.3 443.281 288.379 443.339 288.437C443.397 288.495 443.476 288.528 443.558 288.528Z" fill="#191919"/>
<path d="M447.146 297.002C460.87 312.686 486.607 306.189 504.009 303.138C521.149 300.127 534.997 307.797 551.595 309.925C557.391 310.678 564.749 311.32 570.152 308.623C571.122 308.136 570.512 306.902 569.656 306.794C565.96 306.341 560.311 308.238 548.234 305.736C540.768 304.193 533.805 301.417 526.502 299.436C508.154 294.5 490.158 305.298 472.011 303.799C449.887 301.985 442.948 288.374 442.51 288.374C443.548 291.496 445.116 294.415 447.146 297.002Z" fill="#191919"/>
<path d="M455.709 327.232C468.46 327.889 481.248 328.512 493.901 330.268C511.527 332.708 528.273 340.772 546.313 339.692C564.352 338.613 581.48 331.283 599.643 331.135C599.851 331.129 600.051 331.056 600.214 330.928C600.377 330.799 600.495 330.622 600.55 330.421C600.604 330.22 600.593 330.007 600.517 329.814C600.442 329.62 600.306 329.456 600.13 329.345C590.529 324.338 582.37 329.401 569.296 332.017C558.125 334.241 547.274 337.326 535.915 335.802C521.901 333.92 508.654 328.488 494.578 326.714C481.65 324.877 468.536 324.766 455.579 326.384C455.099 326.467 455.247 327.21 455.709 327.232Z" fill="#191919"/>
<path d="M72.1841 474.425C72.1911 474.423 72.1973 474.419 72.2016 474.413C72.206 474.407 72.2084 474.399 72.2084 474.392C72.2084 474.385 72.206 474.377 72.2016 474.371C72.1973 474.365 72.1911 474.361 72.1841 474.359C72.177 474.361 72.1709 474.365 72.1665 474.371C72.1621 474.377 72.1598 474.385 72.1598 474.392C72.1598 474.399 72.1621 474.407 72.1665 474.413C72.1709 474.419 72.177 474.423 72.1841 474.425Z" fill="#191919"/>
<path d="M289.065 462.815C286.293 462.772 281.63 462.738 275.466 462.713C273.982 458.996 276.113 464.524 270.107 449.358C275.503 449.358 279.64 449.358 282.172 449.389C282.425 449.389 282.668 449.288 282.847 449.109C283.026 448.929 283.126 448.686 283.126 448.432C283.126 448.179 283.026 447.936 282.847 447.756C282.668 447.577 282.425 447.476 282.172 447.476C279.581 447.439 275.149 447.405 269.313 447.381C267.908 443.987 267.446 443.466 266.325 442.867C266.236 442.817 266.137 442.787 266.035 442.781C265.933 442.774 265.831 442.79 265.736 442.828C265.642 442.866 265.556 442.924 265.487 443C265.418 443.075 265.366 443.164 265.336 443.262C264.976 444.296 264.93 444.925 265.777 447.368C254.978 447.331 240.367 447.31 224.043 447.306C223.403 445.384 222.563 443.535 221.539 441.787C221.467 441.672 221.36 441.583 221.234 441.533C221.107 441.483 220.969 441.475 220.838 441.509C220.706 441.544 220.589 441.619 220.504 441.725C220.419 441.83 220.369 441.96 220.362 442.096C220.403 443.844 220.609 445.585 220.978 447.294C207.084 447.294 192.072 447.294 177.19 447.328C177.116 446.018 177.039 444.706 176.959 443.392C176.947 443.209 176.866 443.037 176.732 442.912C176.599 442.787 176.423 442.717 176.24 442.717C176.057 442.717 175.881 442.787 175.747 442.912C175.613 443.037 175.532 443.209 175.52 443.392C175.388 444.706 175.256 446.02 175.132 447.331C159.625 447.353 144.332 447.387 130.642 447.43C130.754 446.236 130.594 445.033 130.174 443.91C130.041 443.58 129.607 443.361 129.336 443.678C128.466 444.764 127.9 446.062 127.697 447.439C112.119 447.492 98.8531 447.556 90.1059 447.63C91.0053 446.235 91.7529 444.746 92.3358 443.191C92.7978 441.874 90.8236 440.671 89.915 441.79C88.3958 443.696 86.9512 445.659 85.5845 447.677C83.4907 447.689 81.3972 447.728 79.3043 447.794C79.1385 447.794 78.9795 447.86 78.8622 447.977C78.745 448.095 78.6791 448.254 78.6791 448.42C78.6791 448.586 78.745 448.746 78.8622 448.863C78.9795 448.98 79.1385 449.046 79.3043 449.046C80.7365 449.154 82.4644 449.25 84.4572 449.339C77.1422 460.226 77.7428 459.057 75.131 463.003C72.3093 463.014 69.4878 463.057 66.6671 463.133C66.5013 463.133 66.3423 463.199 66.225 463.316C66.1077 463.433 66.0419 463.593 66.0419 463.759C66.0419 463.925 66.1077 464.084 66.225 464.202C66.3423 464.319 66.5013 464.385 66.6671 464.385C68.3888 464.508 70.8806 464.613 74.0283 464.694C72.4685 467.112 71.084 469.64 69.8857 472.258C69.8505 472.319 69.8276 472.386 69.8183 472.455C69.809 472.525 69.8135 472.596 69.8315 472.664C69.8679 472.801 69.9572 472.918 70.0798 472.989C70.2023 473.06 70.348 473.08 70.4849 473.043C70.6218 473.007 70.7386 472.917 70.8097 472.795C72.6577 470.105 74.7121 467.411 76.8311 464.774C87.3031 465.011 103.371 465.107 122.132 465.122C121.278 467.478 120.738 469.937 120.527 472.434C120.469 473.332 121.63 473.455 122.067 472.853C123.677 470.485 124.915 467.884 125.738 465.141C140.71 465.141 157.216 465.104 173.863 465.042C173.558 467.656 173.854 470.304 174.729 472.786C174.823 472.948 174.958 473.082 175.12 473.175C175.282 473.269 175.466 473.318 175.653 473.318C175.84 473.318 176.024 473.269 176.186 473.175C176.348 473.082 176.483 472.948 176.577 472.786C177.562 470.325 177.965 467.669 177.757 465.027C194.148 464.962 210.565 464.882 225.672 464.814C226.34 467.223 227.289 469.544 228.5 471.73C228.61 471.907 228.774 472.043 228.967 472.118C229.16 472.194 229.373 472.206 229.573 472.151C229.774 472.096 229.951 471.978 230.079 471.815C230.208 471.651 230.28 471.451 230.286 471.243C230.181 469.065 229.843 466.904 229.276 464.798C246.111 464.721 261.129 464.66 272.396 464.657C273.42 467.505 274.822 470.203 276.563 472.678C277 473.261 278.251 473.187 278.152 472.249C277.822 469.648 277.176 467.097 276.227 464.653C281.728 464.653 286.108 464.681 289.077 464.727C289.202 464.727 289.326 464.701 289.442 464.652C289.557 464.604 289.662 464.532 289.75 464.443C289.838 464.354 289.908 464.248 289.955 464.131C290.003 464.015 290.026 463.891 290.026 463.765C290.025 463.639 289.999 463.515 289.951 463.399C289.902 463.284 289.831 463.179 289.742 463.091C289.652 463.002 289.547 462.933 289.431 462.885C289.314 462.838 289.19 462.814 289.065 462.815ZM78.2726 462.988C82.1657 458.197 86.0834 453.6 88.8832 449.515C98.2771 449.824 111.635 449.96 127.017 450.012C125.9 454.34 124.543 458.603 122.954 462.781C104.336 462.836 88.455 462.907 78.2726 462.988ZM126.468 462.772C129.37 452.986 129.672 452.9 130.275 450.021C144.114 450.055 159.431 450.021 174.886 449.95C174.19 457.703 174.415 458.055 174.03 462.67C158.176 462.693 142.322 462.727 126.468 462.772ZM177.652 462.664C177.473 458.545 177.689 457.419 177.325 449.938C192.417 449.867 207.552 449.762 221.526 449.663C222.296 452.671 221.394 448.871 225.044 462.62C210.1 462.633 193.856 462.642 177.652 462.664ZM228.663 462.636L224.794 449.639C241.195 449.522 255.798 449.414 266.516 449.37C268.921 455.685 268.158 453.267 271.641 462.698C260.485 462.657 245.495 462.639 228.663 462.636Z" fill="#191919"/>
<path d="M363.875 465.218C362.215 464.623 360.74 464.385 353.557 464.484C350.746 458.991 347.648 453.65 344.274 448.485C347.345 448.653 350.425 448.378 353.419 447.67C353.616 447.609 353.789 447.487 353.911 447.32C354.034 447.153 354.1 446.952 354.1 446.745C354.1 446.538 354.034 446.336 353.911 446.17C353.789 446.003 353.616 445.881 353.419 445.819C349.725 445 345.921 444.811 342.164 445.258C341.154 443.743 340.127 442.24 339.084 440.748C338.97 440.563 338.787 440.43 338.576 440.377C338.365 440.324 338.142 440.356 337.954 440.466C337.766 440.576 337.629 440.755 337.57 440.965C337.512 441.174 337.538 441.399 337.643 441.59L339.743 445.341C334.609 445.529 326.299 445.884 320.854 446.131C319.567 444.062 318.036 442.155 316.295 440.452C316.209 440.372 316.1 440.322 315.983 440.31C315.867 440.297 315.75 440.322 315.648 440.381C315.547 440.44 315.467 440.53 315.421 440.637C315.374 440.745 315.363 440.865 315.39 440.979C315.894 442.807 316.563 444.585 317.389 446.291C313.718 446.248 310.051 446.565 306.442 447.239C306.312 447.277 306.198 447.357 306.116 447.467C306.035 447.576 305.991 447.708 305.991 447.845C305.991 447.981 306.035 448.114 306.116 448.223C306.198 448.332 306.312 448.412 306.442 448.451C310.515 449.291 314.69 449.518 318.83 449.123C320.475 452.156 322.341 455.111 323.884 457.968C325.132 460.27 326.305 462.738 327.559 465.166C323.602 464.998 319.64 465.296 315.753 466.054C315.612 466.081 315.485 466.156 315.394 466.267C315.302 466.377 315.252 466.516 315.252 466.66C315.252 466.804 315.302 466.943 315.394 467.054C315.485 467.164 315.612 467.24 315.753 467.266C320.151 468.092 324.637 468.344 329.099 468.016C330.33 470.27 331.802 472.383 333.488 474.319C333.947 474.831 334.68 474.276 334.563 473.702C334.159 471.749 333.557 469.842 332.764 468.013C339.312 467.985 347.976 467.908 352.168 467.846C353.135 469.59 354.238 471.255 355.467 472.826C355.935 473.443 357.056 473.134 356.8 472.267C356.343 470.75 355.789 469.263 355.143 467.816C358.085 468.023 361.041 467.772 363.906 467.072C364.104 467.008 364.276 466.883 364.397 466.714C364.517 466.545 364.581 466.341 364.577 466.134C364.574 465.926 364.504 465.724 364.377 465.559C364.251 465.395 364.075 465.275 363.875 465.218ZM331.378 465.061C329.875 462.065 328.119 459.165 326.589 456.386C325.314 454.078 324.026 451.533 322.609 449.049C327.229 448.948 333.337 448.778 341.524 448.553C345.983 456.574 348.583 461.383 350.311 464.542C346.233 464.601 342.244 464.737 331.378 465.048V465.061Z" fill="#191919"/>
</svg>
